<svg xmlns="http://www.w3.org/2000/svg" xmlns:xlink="http://www.w3.org/1999/xlink" width="523.5181" height="236" viewBox="0 0 523.5181 236">
  <defs>
    <linearGradient id="a" x1="8130.745" y1="8518.5815" x2="8131.4879" y2="8519.2387" gradientTransform="translate(-821755.193 -1272591.2354) scale(101.12 149.4)" gradientUnits="userSpaceOnUse">
      <stop offset="0" stop-color="#925443"/>
      <stop offset="0.0721" stop-color="#9f624b"/>
      <stop offset="0.2286" stop-color="#b97c59"/>
      <stop offset="0.3934" stop-color="#d09465"/>
      <stop offset="0.5682" stop-color="#e1a76f"/>
      <stop offset="0.7598" stop-color="#eeb475"/>
      <stop offset="1" stop-color="#f3b978"/>
    </linearGradient>
    <linearGradient id="b" x1="7430.1934" y1="8518.6709" x2="7430.1934" y2="8519.1763" gradientTransform="translate(-83159.3673 -1272591.2454) scale(11.26 149.4)" gradientUnits="userSpaceOnUse">
      <stop offset="0" stop-color="#845a39"/>
      <stop offset="0.2216" stop-color="#a06d45"/>
      <stop offset="0.5298" stop-color="#c58554"/>
      <stop offset="0.7042" stop-color="#d5905b"/>
    </linearGradient>
    <linearGradient id="c" x1="8074.8662" y1="8433.1031" x2="8074.8662" y2="8434.6969" gradientTransform="translate(-497769.489 -477332.1123) scale(61.7 56.62)" gradientUnits="userSpaceOnUse">
      <stop offset="0" stop-color="#9c663f"/>
      <stop offset="0.1931" stop-color="#bb8557"/>
      <stop offset="0.447" stop-color="#e5b179"/>
      <stop offset="0.5782" stop-color="#fdc789"/>
    </linearGradient>
    <linearGradient id="d" x1="7582.258" y1="8433.306" x2="7582.258" y2="8434.6494" gradientTransform="translate(-105284.9205 -477417.839) scale(13.95 56.63)" xlink:href="#b"/>
    <linearGradient id="e" x1="7715.1225" y1="8514.472" x2="7715.1225" y2="8515.0289" gradientTransform="translate(-135685.159 -1175752.1679) scale(17.63 138.1)" gradientUnits="userSpaceOnUse">
      <stop offset="0" stop-color="#925443"/>
      <stop offset="0.1622" stop-color="#b67a58"/>
      <stop offset="0.3336" stop-color="#dea46d"/>
      <stop offset="0.4222" stop-color="#f3b978"/>
    </linearGradient>
    <linearGradient id="f" x1="8114.7559" y1="8514.2197" x2="8114.3023" y2="8515.0115" gradientTransform="translate(-690976.7509 -1175752.1679) scale(85.2 138.1)" gradientUnits="userSpaceOnUse">
      <stop offset="0" stop-color="#713d2f"/>
      <stop offset="0.0795" stop-color="#804c37"/>
      <stop offset="0.2347" stop-color="#9c6745"/>
      <stop offset="0.3983" stop-color="#b47d50"/>
      <stop offset="0.5717" stop-color="#c68e58"/>
      <stop offset="0.7617" stop-color="#d19a5d"/>
      <stop offset="1" stop-color="#d69f60"/>
    </linearGradient>
    <linearGradient id="g" x1="8115.1602" y1="8470.2592" x2="8114.2632" y2="8471.3611" gradientTransform="translate(-691013.4183 -656762.9177) scale(85.2 77.54)" gradientUnits="userSpaceOnUse">
      <stop offset="0" stop-color="#713d2f"/>
      <stop offset="0.0156" stop-color="#733f30"/>
      <stop offset="0.2616" stop-color="#996444"/>
      <stop offset="0.4831" stop-color="#b88152"/>
      <stop offset="0.6705" stop-color="#cd965b"/>
      <stop offset="0.8011" stop-color="#d69f60"/>
    </linearGradient>
    <linearGradient id="h" x1="7492.4632" y1="8469.7749" x2="7492.8728" y2="8471.1129" gradientTransform="translate(-91337.7803 -654705.869) scale(12.23 77.3)" gradientUnits="userSpaceOnUse">
      <stop offset="0" stop-color="#925443"/>
      <stop offset="0.1853" stop-color="#b67a58"/>
      <stop offset="0.3812" stop-color="#dea46d"/>
      <stop offset="0.4824" stop-color="#f3b978"/>
    </linearGradient>
    <linearGradient id="i" x1="8155.9527" y1="8470.288" x2="8156.1005" y2="8471.5388" gradientTransform="translate(-1153765.3963 -656762.9177) scale(141.52 77.54)" gradientUnits="userSpaceOnUse">
      <stop offset="0" stop-color="#9d5c48"/>
      <stop offset="0.0868" stop-color="#ac6c51"/>
      <stop offset="0.2408" stop-color="#c48660"/>
      <stop offset="0.403" stop-color="#d99e6c"/>
      <stop offset="0.5751" stop-color="#eab076"/>
      <stop offset="0.7636" stop-color="#f7bd7d"/>
      <stop offset="1" stop-color="#fdc27f"/>
    </linearGradient>
    <linearGradient id="j" x1="8116.7157" y1="8470.245" x2="8116.1106" y2="8471.4547" gradientTransform="translate(-703125.8729 -656785.6769) scale(86.68 77.54)" xlink:href="#g"/>
    <linearGradient id="k" x1="7685.4058" y1="8469.7785" x2="7685.5052" y2="8471.0316" gradientTransform="translate(-127616.324 -654728.759) scale(16.65 77.3)" xlink:href="#h"/>
    <linearGradient id="l" x1="8074.7244" y1="8433.627" x2="8074.9797" y2="8434.7338" gradientTransform="translate(-497731.789 -477326.2962) scale(61.7 56.6)" xlink:href="#i"/>
    <linearGradient id="m" x1="7312.7109" y1="8434.5172" x2="7312.7109" y2="8435.8496" gradientTransform="translate(-71141.4088 -481611.357) scale(9.8 57.1)" xlink:href="#b"/>
    <linearGradient id="n" x1="7693.3668" y1="8469.8454" x2="7693.3668" y2="8471.1352" gradientTransform="translate(-129461.7413 -654705.869) scale(16.9 77.3)" xlink:href="#b"/>
    <linearGradient id="o" x1="8044.4332" y1="8387.1389" x2="8044.4332" y2="8388.7445" gradientTransform="translate(-409317.6513 -354880.138) scale(50.93 42.33)" gradientUnits="userSpaceOnUse">
      <stop offset="0" stop-color="#7e4435"/>
      <stop offset="0.0973" stop-color="#864c39"/>
      <stop offset="0.2559" stop-color="#9c6244"/>
      <stop offset="0.4551" stop-color="#c48a58"/>
      <stop offset="0.5572" stop-color="#e1a766"/>
    </linearGradient>
    <linearGradient id="p" x1="7265.258" y1="8388.6371" x2="7263.2091" y2="8389.925" gradientTransform="translate(-67199.9475 -357022.848) scale(9.3 42.58)" gradientUnits="userSpaceOnUse">
      <stop offset="0" stop-color="#925443"/>
      <stop offset="0.1187" stop-color="#a76a4f"/>
      <stop offset="0.3724" stop-color="#eab073"/>
      <stop offset="0.3928" stop-color="#f3b978"/>
    </linearGradient>
    <mask id="q" x="81.4234" y="74.6613" width="43.7565" height="22.9481" maskUnits="userSpaceOnUse">
      <path d="M95.13,77.5s18.1-3.68,30.05-2.66c-1.2,11.89-14.33,20.09-16.32,20.89-5.96,2.2-8.76,3.43-20.7-1.9C69.66,85.67,95.13,77.5,95.13,77.5Z" fill="#fff"/>
    </mask>
    <mask id="r" x="80.7999" y="82.3619" width="24.5" height="19.6481" maskUnits="userSpaceOnUse">
      <path d="M80.81,84.64a25.0963,25.0963,0,0,1,1.6-2.05c12.72-.81,21.67,14.59,21.67,14.59l-2.6,3C95.53,89.33,80.83,84.63,80.83,84.63" fill="#fff"/>
    </mask>
    <mask id="s" x="80.8099" y="82.5592" width="23.27" height="17.6209" maskUnits="userSpaceOnUse">
      <path d="M80.81,84.64a25.0963,25.0963,0,0,1,1.6-2.05c12.72-.81,21.67,14.59,21.67,14.59l-2.6,3C95.53,89.33,80.83,84.63,80.83,84.63" fill="#fff"/>
    </mask>
    <mask id="t" x="80.2299" y="81.95" width="8.54" height="5.3189" maskUnits="userSpaceOnUse">
      <path d="M80.26,87.25h8.37v-5.3H80.25Z" fill="#fff"/>
    </mask>
    <mask id="u" x="75.7808" y="83.3411" width="28.1652" height="27.3848" maskUnits="userSpaceOnUse">
      <path d="M81.6,108.76c-11.34-7.35-1.4-24.1-1-24.52a.9875.9875,0,0,1,.6-.2c12.74.2,21.3,14.9,21.3,14.9a.807.807,0,0,1,.2.63c0,.2-7.75,11.24-16.32,10.84a11.304,11.304,0,0,1-4.78-1.65" fill="#fff"/>
    </mask>
    <mask id="v" x="76.1884" y="84.04" width="26.5115" height="26.3806" maskUnits="userSpaceOnUse">
      <path d="M81.6,108.76c-11.34-7.35-1.4-24.1-1-24.52a.9875.9875,0,0,1,.6-.2c12.74.2,21.3,14.9,21.3,14.9a.807.807,0,0,1,.2.63c0,.2-7.75,11.24-16.32,10.84a11.304,11.304,0,0,1-4.78-1.65" fill="#fff"/>
    </mask>
    <mask id="w" x="70.8399" y="82.11" width="17.54" height="20.85" maskUnits="userSpaceOnUse">
      <path d="M70.84,102.96H87.76V82.11H70.84Z" fill="#fff"/>
    </mask>
    <linearGradient id="x" x1="7965.2254" y1="8355.6215" x2="7965.2254" y2="8356.6253" gradientTransform="translate(-278782.1883 -300455.969) scale(35.02 35.96)" gradientUnits="userSpaceOnUse">
      <stop offset="0" stop-color="#4a4a4a"/>
      <stop offset="1" stop-color="#29282a"/>
    </linearGradient>
    <linearGradient id="y" x1="7895.4194" y1="8296.6783" x2="7895.4194" y2="8297.6783" gradientTransform="translate(-216769.4104 -233956.0649) scale(27.46 28.2)" xlink:href="#x"/>
    <mask id="z" x="0" y="19.2481" width="523.5181" height="178.4686" maskUnits="userSpaceOnUse">
      <rect y="19.2481" width="512" height="139.3564" fill="#fff"/>
    </mask>
    <symbol id="aa" data-name="foreground" viewBox="0 0 564.56 245.68">
      <g>
        <path d="M397.82,189.05H498.94V39.65H397.82Z" fill="url(#a)"/>
        <path d="M510.2,183.64l-11.26,5.4V39.64H510.2Z" fill="url(#b)"/>
        <path d="M418.88,245.68h61.7V189.06h-61.7Z" fill="url(#c)"/>
        <path d="M494.53,236.08l-13.95,9.6V189.05h13.95Z" fill="url(#d)"/>
        <path d="M323.63,170.58l17.63,7.15V39.63H323.63Z" fill="url(#e)"/>
        <path d="M341.26,177.73h85.2V39.63h-85.2Z" fill="url(#f)"/>
        <path d="M304.53,116.93h85.2V39.39h-85.2Z" fill="url(#g)"/>
        <path d="M292.3,115.21l12.23,1.72V39.63l-12.23,4.2Z" fill="url(#h)"/>
        <path d="M406.14,116.93H547.66V39.39H406.14Z" fill="url(#i)"/>
        <path d="M323.4,88.62h42.1V74.34H344.44v-2.2h-9.3v2.2H323.4Zm2.43-11.8h4.66v7.12h2.4V76.81h2.2v9.35H325.8V76.81Zm11.5,9.34V74.34h4.66v2.47h4.6v9.35h-9.26Zm4.66-2.22h2.4V79.02h-2.5v4.92Zm7.1,2.22V76.81h4.6v7.13h2.4V76.81h2.2v7.13h2.4v-6.9h2.4v9.37l-14.2-.25Z" fill="#1c140f"/>
        <path d="M355.22,94.04H441.9V16.5H355.22Z" fill="url(#j)"/>
        <path d="M338.57,94.04h16.65V16.74l-16.65,5.9Z" fill="url(#k)"/>
        <path d="M377.5,66.22h42.1V51.94H398.55v-2.2h-9.3v2.2H377.5V66.22Zm2.45-11.8h4.65v7.12h2.45V54.41h2.2v9.35h-9.3V54.42Zm11.75,9.34V51.94h4.65v2.47H401v9.35Zm4.4-2.22h2.45V56.62h-2.44v4.92Zm7.1,2.22V54.41h4.66v7.13h2.2V54.41h2.2v6.9h2.45v-6.9h2.5v9.35H403.2Z" fill="#1c140f"/>
        <path d="M456.58,80.01h61.7V23.41h-61.7Z" fill="url(#l)"/>
        <path d="M380.2,51.7H482.78V0H380.18Z" fill="#f0b877"/>
        <path d="M477.4,56.38H385.8l-5.63-4.68H483Z" fill="#fece99"/>
        <path d="M528.08,80.5l-9.8-.5V23.4l9.8,3.44Z" fill="url(#m)"/>
        <path d="M564.56,114.48l-16.9,2.45V39.63l16.9,4.93Z" fill="url(#n)"/>
        <path d="M359.87,220.31H410.8V177.98H359.87Z" fill="url(#o)"/>
        <path d="M359.87,220.31l-9.3-6.15V177.73h9.3Z" fill="url(#p)"/>
        <path d="M528.08,80.5H471.03l-14.45-.25h61.7Z" fill="#fece99"/>
        <path d="M448.26,116.93H426.71v53.9l21.6-18.2ZM432.6,189.05H418.88v16l13.7-11.57Z" fill="#161616" opacity="0.18" style="isolation: isolate"/>
        <path d="M355.22,93.78l-16.65.26H441.89Zm111.16,22.43-60.24.72H547.42Zm-118.5.47-43.35.25h84.96Zm36.96,60.8-43.58.25h85.45Zm71,11.04-45.04.53h88.14Z" fill="#fece99"/>
        <path d="M427.94,51.7h7.35V36.93h-7.4Z" fill="#c2c2c2"/>
        <path d="M445.56,245.68h7.35V230.9h-7.3Z" fill="#e2e2e2"/>
        <path d="M401,93.78h-6.36V79.28H401Z" fill="#c2c2c2"/>
        <path d="M434.8,56.38h-6.37l-.5-4.68h7.35Z" fill="#e3e3e3"/>
        <path d="M480.82,53.68H382.39l1.2.73h96Z" fill="#e3e3e3"/>
        <path d="M522.7,80.25V67.95h1.95v12.3Zm35.5,35.2V103.39l-2.45.3v12.1Zm-51.9,69.9V173.79l-2.46.5v12.3Zm-16.9,54.16V227.94l-2.2.74v12.3Z" fill="#b0b1b1"/>
        <path d="M376.27,187.08h-5.14a1.0538,1.0538,0,0,1-.98-.98v-5.17a1.073,1.073,0,0,1,.98-1h5.14a1.0568,1.0568,0,0,1,.98,1v5.17C377.5,186.6,377.01,187.08,376.27,187.08Zm-1.22-.5a2.4018,2.4018,0,0,0,.24-.73c0-.25-.3-.25-.3-.25a.2635.2635,0,0,0-.3.25,2.8491,2.8491,0,0,0,.2.74Zm.98-3.44a.5377.5377,0,0,1-.5.5.5273.5273,0,0,1-.48-.5.5377.5377,0,0,1-.5.5c-.24,0-.24,0-.48-.25v-2.2c0-.5-.25-.7-.74-.7-.5,0-.73.3-.73.8h.24a.5829.5829,0,0,1,.5-.5.5719.5719,0,0,1,.48.5v2.2a.8066.8066,0,0,1-.5.3.48.48,0,1,0-.96,0,.5.5,0,0,1-.5-.5,2.1034,2.1034,0,0,0,1.96,2.2v.2h.25v-.2a2.3326,2.3326,0,0,0,1.96-2.2Zm-.25,1.73a.2107.2107,0,0,0-.24.2,2.7237,2.7237,0,0,0,.24.7,2.4642,2.4642,0,0,0,.25-.8.2634.2634,0,0,0-.25-.3Zm8.57,2.2h-5.14a1.0709,1.0709,0,0,1-.9-1v-5.2a1.0754,1.0754,0,0,1,1-1h5.2a1.0754,1.0754,0,0,1,1,1v5.1c.3.5-.2,1-.9,1Zm-3.67-1.3.73-1h-.4v-3.2h-.7v3.2h-.2l.8.9Zm2.94-4.9h-3.18v.8h3.18Zm0,3.9v-3.2h-.74v3.2h-.5l.75.9.73-1h-.24Zm-15.42,2.2h-5.15a1.0568,1.0568,0,0,1-.98-1v-5.2a1.073,1.073,0,0,1,.98-1h5.14a1.0709,1.0709,0,0,1,.9,1v5.1c.2.5-.3.9-1,.9Zm-2.7-1.7-.25-.3.25.7v-.4Zm-1.22-1.7v0Zm0,2.4h.97l-.5-1.3-.23.4-.24-1-.25-.7.25,2.4Zm2.44-2.7c0-.5-.24-1-.73-1v-1.7l.7-.5h-2.2l.7.5v1.7a.9086.9086,0,0,0-.8,1v.2l.2.2.2.7.2-.3.7,1.2h.7v-2.2Zm88.38,18.2h-6.35a1.1851,1.1851,0,0,1-1.23-1.3v-6.4a1.19,1.19,0,0,1,1.23-1.3h6.36a1.1838,1.1838,0,0,1,1.3,1.2v6.4c.3.5-.5,1.2-1.2,1.2Zm-1.7-.5a7.41,7.41,0,0,0,.24-1c0-.3-.24-.3-.24-.3-.25,0-.25.2-.25.2a5.3137,5.3137,0,0,0,.25.9Zm1.22-4.5c0,.2-.24.5-.73.5-.3,0-.8-.3-.8-.5,0,.2-.3.5-.8.5-.3,0-.5,0-.5-.3v-2.7a1,1,0,1,0-2,0h.2a.7615.7615,0,0,1,.7-.8c.5,0,.7.2.7.7v2.81c0,.27-.3.27-.5.27-.3,0-.8-.27-.8-.5,0,.23-.3.5-.7.5-.3,0-.8-.27-.8-.5a2.6737,2.6737,0,0,0,2.4,2.7v.24h.2v-.2a2.74,2.74,0,0,0,2.9-2.7Zm-.24,1.9c-.25,0-.25.2-.25.2a5.3137,5.3137,0,0,0,.25.9,7.41,7.41,0,0,0,.24-1s0-.3-.24-.3Zm10.77,2.9H458.8a1.1875,1.1875,0,0,1-1.24-1.3v-6.4a1.19,1.19,0,0,1,1.23-1.3h6.3a1.1553,1.1553,0,0,1,1.2,1.2v6.4a1.3077,1.3077,0,0,1-1.3,1.2Zm-4.65-1.5.98-1.3h-.73v-3.9h-.74v4h-.4l1,1.2Zm3.43-6.2h-3.92v.8h4v-.8Zm0,4.9v-3.9h-.74v4h-.5l.9,1.2,1-1.3h-.66Zm11.27,2.7h-6.37a1.1851,1.1851,0,0,1-1.23-1.3v-6.4a1.1631,1.1631,0,0,1,1.23-1.2h6.36a1.1554,1.1554,0,0,1,1.2,1.2v6.4a1.3077,1.3077,0,0,1-1.3,1.2Zm-3.2-6.2v-1.7h-1.46v1l-1.23,1.4v2.5c0,.2.3.2.3.2.3,0,.3-.2.3-.2v-1.5s-.2,0-.2-.3v-.2c0-.3,0-.3.3-.3l1.3-1-1.2,1c-.2,0-.2.3,0,.5,0,.3.3.3.5,0l1.3-1c0,.3.5,0,.5-.5Zm0,1.2-1.46,1v1.51l1.47-1v-1.4Zm-1.7,2.7,1.7,1,1.72-1-1.7-1-1.73,1Zm3.42-.3v-1.4l-1.47-1v1.51l1.47,1Zm1.23-2.7h0l-1.47-1.8v-.7h-1.23v2a.8109.8109,0,0,0,.5.7l1.22.9h.5v-.5l-1.24-1,1.23,1,.24.2v.2l-.24.3v1.51c0,.3.24.3.24.3l.25-.2v-2.91Zm-29.88,5.1h-6.36a1.1838,1.1838,0,0,1-1.2-1.3v-6.4a1.208,1.208,0,0,1,1.3-1.3h6.4a1.1838,1.1838,0,0,1,1.3,1.2v6.51c.3.5-.5,1.2-1.2,1.2Zm-3.18-2-.3-.5.2,1v-.5Zm-1.5-2.5-.3.7.2-.5v-.3Zm0,3.2h1.2l-.5-1.5-.3.7-.3-1-.3-.7v2.51Zm2.9-3.2c0-.8-.5-1.3-1-1.3v-1.9l1-.5h-2.7l1,.5v2c-.5.3-1,.7-1,1.2v.5l.2.5.2,1,.2-.5.7,1.7h.9v-3.2h.5Zm-40.4-184h-6.6a1.6124,1.6124,0,0,1-1.5-1.5V4.37a1.5237,1.5237,0,0,1,1.4-1.5h6.6a1.6124,1.6124,0,0,1,1.5,1.5v6.6a1.6,1.6,0,0,1-1.5,1.4Zm-1.7-.5a4.6087,4.6087,0,0,0,.5-1,.6423.6423,0,0,0-.5-.5.54.54,0,0,0-.5.5A4.6087,4.6087,0,0,0,401.19,11.97Zm1.2-4.7c0,.2-.2.5-.7.5s-.8-.3-.8-.5c0,.2-.3.5-.8.5-.3,0-.5,0-.5-.3V4.57a1,1,0,1,0-2,0h.2a.74.74,0,0,1,.7-.7c.5,0,.7.2.7.7v3c-.3.2-.3.2-.5.2-.5,0-.7-.3-.7-.5a.6819.6819,0,0,1-.7.5c-.5,0-.8-.3-.8-.5a2.7,2.7,0,0,0,2.7,2.7v.3h.2v-.2a2.7,2.7,0,0,0,2.7-2.7Zm-.2,2.2a.54.54,0,0,0-.5.5,4.6087,4.6087,0,0,0,.5,1,3.0319,3.0319,0,0,0,.5-1C402.39,9.77,402.39,9.47,402.19,9.47Zm11.2,2.9h-6.6a1.6124,1.6124,0,0,1-1.5-1.5V4.27a1.538,1.538,0,0,1,1.5-1.5h6.6a1.6,1.6,0,0,1,1.4,1.5v6.6a1.5236,1.5236,0,0,1-1.5,1.4Zm-4.9-1.5.9-1.2h-.5V5.47h-1v4h-.5l1,1.5Zm3.6-6.7h-4.2v.8h4.1v-.8Zm0,5.1V5.07h-1V9.68h-.5l.9,1.25,1-1.23h-.5Zm-19.9,3h-6.6a1.6124,1.6124,0,0,1-1.5-1.5V4.17a1.538,1.538,0,0,1,1.5-1.5h6.6a1.6038,1.6038,0,0,1,1.5,1.4v6.61c-.3.7-.8,1.45-1.5,1.45Zm-3.7-2.2-.3-.5.2,1v-.5Zm-1.5-2.5-.3.7.2-.5v-.3Zm0,3.4h1.4l-.5-1.5-.2.7-.3-1.2-.3-1-.2,2.9Zm3.1-3.4a1.577,1.577,0,0,0-1-1.5V3.97l.9-.5h-2.7l1,.5V6.68a1.31,1.31,0,0,0-1,1.48v.5l.2.5.3,1,.3-.5.7,1.73h1.2V8.19Zm-65.3,43h-6a1.208,1.208,0,0,1-1.3-1.3v-6.1a1.1838,1.1838,0,0,1,1.2-1.3h6.1a1.1554,1.1554,0,0,1,1.2,1.2v6.61a1.3485,1.3485,0,0,1-1.3,1.25Zm-1.7-.5a8.6583,8.6583,0,0,0,.2-1c0-.2-.3-.3-.3-.3a.2938.2938,0,0,0-.3.3l.2,1Zm1.2-4.5c0,.3-.3.5-.7.5-.3,0-.8-.2-.8-.5,0,.3-.3.5-.8.5-.3,0-.5,0-.5-.2v-2.7a1,1,0,0,0-2,0h.2c0-.3.3-.8.7-.8a.7615.7615,0,0,1,.8.7v2.7c0,.2-.2.2-.5.2-.2,0-.7-.3-.7-.5,0,.2-.2.5-.7.5-.2,0-.7-.3-.7-.5a2.8009,2.8009,0,0,0,2.5,2.7v.3h.3v-.3a2.8293,2.8293,0,0,0,3-2.7Zm-.3,2a.1959.1959,0,0,0-.2.2,6.3743,6.3743,0,0,0,.2.9,5.6285,5.6285,0,0,0,.2-1,.2938.2938,0,0,0-.3-.3Zm10.8,2.9h-6a1.1347,1.1347,0,0,1-1.2-1.3v-6.1a1.0607,1.0607,0,0,1,1.2-1.2h6.1a1.1554,1.1554,0,0,1,1.2,1.2v6.61a1.3077,1.3077,0,0,1-1.3,1.2Zm-4.9-1.5,1-1.2h-.5v-4h-.7v3.91h-.5l.7,1.2Zm3.6-6.2H329.8v.8h3.9v-.7Zm0,4.9v-4h-.7v4h-.5l1,1.2.9-1.2Zm-18.7,3h-6a1.208,1.208,0,0,1-1.3-1.3v-6.1a1.1838,1.1838,0,0,1,1.2-1.3h6.1a1.1554,1.1554,0,0,1,1.2,1.2v6.51c.2.5-.5,1.25-1.2,1.25Zm-3.2-1.9-.3-.5.2,1v-.5Zm-1.5-2.5-.3.7.3-.5v-.2Zm0,3.2h1.2l-.5-1.5-.2.7-.2-1-.2-.8v2.81Zm2.9-3.2c0-.8-.5-1.3-1-1.3v-2l1-.5h-2.7l.9.5v2a1.5174,1.5174,0,0,0-1,1.2v.5l.2.4.3,1,.27-.5.7,1.7h1v-3.2h.2Z" fill="#975d42"/>
        <path d="M478.86,48.5a1.0538,1.0538,0,0,1-.98.98h-11.5a1.0538,1.0538,0,0,1-.98-.98V44.3a1.0609,1.0609,0,0,1,.98-.97h11.5a1.0538,1.0538,0,0,1,.98.98V48.5Z" fill="#ededed"/>
        <path d="M466.62,48.98h11.26v-.52H466.62Zm0-1.47h.1V44.06h-.1Zm.73,0h.1V44.06h-.1Zm.5,0h.1V44.06h-.1Zm2.2,0h.1V44.06h-.1Zm1.95,0h.1V44.06H472Zm-1.47,0h.1V44.06h-.1Zm5.87,0h.1V44.06h-.1Zm-8.07,0h.25V44.06h-.25Zm.97,0h.26V44.06h-.25Zm1.72,0h.25V44.06h-.25Zm3.43,0h.25V44.06h-.25Zm-1.47,0h.25V44.06h-.25Zm2.94,0h.25V44.06h-.25Zm-7.1,0h.1V44.06h-.1Zm4.9,0h.1V44.06h-.1Zm3.43,0h.1V44.06h-.1Zm.25,0h.1V44.06h-.1Zm-4.9,0h.1V44.06h-.1Zm2.7,0h.1V44.06h-.1Zm2.68,0h.1V44.06h-.1Zm-2.45,0h.1V44.06h-.1Zm-.5,0h.1V44.06h-.1Z" fill="#777"/>
        <path d="M358.64,172.08a1.0609,1.0609,0,0,1-.98.97H347.14a1.0538,1.0538,0,0,1-.98-.98v-3.7a1.073,1.073,0,0,1,.98-1h10.52a1.0568,1.0568,0,0,1,.98,1v3.71Z" fill="#ededed"/>
        <path d="M347.63,172.56h10.04v-.25H347.63Zm0-1.48h.1v-3.2h-.1Zm.5,0h.1v-3.2h-.1Zm.47,0h.1v-3.2h-.1Zm1.97,0h.1v-3.2h-.1Zm1.96,0h.1v-3.2h-.1Zm-1.23,0h.1v-3.2h-.1Zm5.14,0h.1v-3.2h-.1Zm-7.34,0h.25v-3.2h-.25Zm.98,0h.25v-3.2h-.25Zm1.47,0h.25v-3.2h-.25Zm2.93,0h.25v-3.2h-.25Zm-1.22,0h.25v-3.2h-.2Zm2.7,0h.24v-3.2h-.25Zm-6.36,0h.1v-3.2h-.1Zm4.4,0h.1v-3.2H354Zm2.93,0h.1v-3.2h-.1Zm.5,0h.1v-3.2h-.1Zm-4.66,0h.1v-3.2h-.1Zm2.7,0h.1v-3.2h-.1Zm2.2,0h.1v-3.2h-.1Zm-1.97,0h.1v-3.2h-.1Zm-.73,0h.1v-3.2h-.1Z" fill="#777"/>
        <path d="M299.4,101.91h-2.7v14.03l2.7.25Zm33.53,57.37-2.7-.75V173.3l2.7.98Z" fill="#cbcbcb"/>
        <path d="M442.38,158.53h43.34V143.76h-21.8V141.3h-9.54v2.46h-12v14.77Zm2.45-12.06h4.9v7.3h2.45v-7.4h2.44v9.6h-9.55v-9.6h-.24Zm12,9.8v-12.3h4.65v2.4h4.9v9.8h-9.55Zm4.65-2.5h2.45v-4.9h-2.45Zm7.35,2.4v-9.6h4.9v7.4h2.44v-7.4h2.45v7.11h2.45v-7.1h2.45v9.6h-14.7Zm-106.27-6.4H405.9v-14.8H384.1v-2.4h-9.54v2.4h-12v14.8Zm2.45-12.1h4.9v7.4h2.5v-7.4h2.5v9.6h-9.5v-9.6h-.4Zm12,9.6v-12.3h4.7v2.4h4.9v9.8h-9.5Zm4.9-2.2h2.5v-5h-2.4v4.9Zm7.1,2.2v-9.6h4.9v7.4h2.5v-7.4h2.5v7.1h2.5v-7.1h2.5v9.6h-14.9Zm93.3-84.7h21.8v-7.4h-10.7v-1.3h-4.9v1.2h-6.1v7.61Zm1.3-5.9h2.5v3.6h1.3v-3.7h1.2v5h-4.9v-4.9Zm5.9,4.6v-6.2h2.5v1.2h2.5v4.9h-4.9Zm2.5-1.3h1.3v-2.4h-1.2v2.4Zm3.7,1.2v-5h2.5v3.7h1.3v-3.7h1.2v3.7h1.2v-3.7h1.2v4.9h-7.3Zm-23.5,40.3h41.6v-14h-20.8v-2.2h-9.3v2.41h-11.5v13.79Zm2.5-11.6h4.7v7.1h2.2v-7.2h2.3v9.91h-9.3V90.33h.3Zm11.5,9.3V87.68h4.7v2.2h4.7v9.37l-9.3.25Zm4.4-2.5h2.5v-4.7h-2.4v4.71Zm7.1,2.4v-9.4h4.7v7h2.2v-6.9h2.2v6.91h2.3v-6.9h2.2v9.9H497.8Zm-85.7-62.7h41.6v-14H432.8v-2.2h-9.33v2.51H411.8v14.1Zm2.5-11.6h4.7v6.91h2.2v-7.1h2.2v9.4h-9v-9.2Zm11.5,9.3V22.68h4.7v2.2h4.7v9.8h-9.3Zm4.5-2.5h2.5v-4.7h-2.5v4.7Zm7.1,2.4v-9.3h4.7v7h2.2v-6.9h2.2v6.91h2.2v-6.9h2.2v9.9h-13.5Zm1.5,191.3h35.7v-12h-18v-2h-8v2h-9.8v12.41Zm2-9.9h3.9v6h1.9v-5.9h2v8h-7.9v-7.8Zm9.8,7.8v-10h3.9v2h3.9v8.51h-7.9Zm3.9-1.9h1.9v-4.2h-1.9Zm6.1,1.9v-7.8h3.9v5.9h2v-5.9h1.9v5.9h2v-5.9h1.9v7.9H460.8Zm-87.9-15.5h25.7v-8.6h-13v-1.5h-5.7v2h-7.1v8.6Zm1.5-7.1h2.9v5h1.5v-4.4h1.5v5.7h-5.6v-5.7h-.2Zm7.1,5.7v-7.1h2.9v1.51h3v6h-5.9Zm2.7-1.4h1.4v-3h-1.4Zm4.4,1.5v-5.7h2.9v5h1.5v-4.4h1.5v4.2h1.5v-4.2h1.5v5.7h-8.8Z" fill="#1c140f"/>
        <path d="M87.57,156.38c-26.47-2.67-31.25-35.56-30.45-36.8,20.9-27.37,57.5-20.63,66.87-1.42,0,0,4.7,10.42-6.6,15.12-4.4,1.63-6.8,23.9-29.9,23.1Z" fill="#986945"/>
        <path d="M110.26,134.3a2.274,2.274,0,0,0-.6-3.06,2.0075,2.0075,0,0,0-2.8.8,2.3148,2.3148,0,0,0,.6,3.08,2.0141,2.0141,0,0,0,2.8-.82" fill="#b68563"/>
        <path d="M108.27,134.51a1.42,1.42,0,0,0,2-.62,1.7966,1.7966,0,0,0-.4-2.2,1.428,1.428,0,0,0-2,.6,1.8829,1.8829,0,0,0,.4,2.3" fill="#010101"/>
        <path d="M109.28,133.48c.22.2.65,0,.65-.2.2-.2,0-.6-.22-.82a.3832.3832,0,0,0-.6.2.617.617,0,0,0,.2.82" fill="#fff"/>
        <path d="M84.18,161.28l4.98-5.32a5.95,5.95,0,0,0-3.38-4.5c-2.4-1.22-3.98-.4-5.77,1.03,0,.2.4,6,4.2,8.8" fill="#8a5e3e"/>
        <path d="M87.77,154.94l.8.82-4.2,4.5-1.98-4.9c1-.42,4.1-1.24,5.3-.42" fill="#986945"/>
        <path d="M119.6,130.62c-5.36-1.22-5.76-2.04-4.57-5.72.8-2.45,10.55-7.56,9.56-4.08,0,0-3,5.3-5,9.8" fill="#8a5e3e"/>
        <path d="M114.24,127.15c-.2-2.66,5.37-6.95,9.75-6.33h.4c3.9,2.86,3.3,9.4-1.2,11.03-4.6,1.63-8.8-1.84-9-4.7" fill="#010101"/>
        <path d="M109.26,112.03c.6-.4,4.98-3.27,7.96-2.45a20.2557,20.2557,0,0,0-2.98-2.25,4.1221,4.1221,0,0,0-3.2,1.43,5.917,5.917,0,0,0-1.78,3.27Z" fill="#8a5e3e"/>
        <path d="M81.2,108.56l-2.2.2c-.8-.2-13.32-2.86-18.7-18.4-1.8-5.1-2.2-9.18-1.6-12.04a10.3435,10.3435,0,0,1,1-2.66c2-4.1,26.47-9.8,22.3-9.2-14.73,2.46,14.32-15.52,23.28-8.58,27.47,21.25-6.57,57.62-17.3,37.2" fill="#b58463"/>
        <g style="isolation: isolate">
          <text transform="matrix(1, 0, 0, -1, 73.36, 81.8595)" font-size="2.48" font-family="HelveticaNeue-MediumExt, Helvetica Neue" font-weight="500" style="isolation: isolate">B58463</text>
        </g>
        <path d="M57.32,78.11s51.15,8.38,57.9,4.3c0,0-2.38,14.7-11.13,20.22,0,0-28.3,1.84-31.5,10.22-.2.2-13-4.9-15.3-34.74Z" fill="#cb3935"/>
        <path d="M58.9,77.91c-.8-7.15-.6-16.96,30.66-18.8,0,0,2.2-1.23,1.6-4.5s22.08-1.22,14.12,14.3c-9.15,18.2-47.96,11.45-46.37,9Z" fill="#986945"/>
        <path d="M96.52,48.68c-1-.6-2.38,1.64-3.78,3.9-1.4,2.24-2.58,4.08-1.8,4.5,1,.6,3.6-.83,5-3.28,1.38-2.25,1.38-4.7.58-5.1" fill="#7a5537"/>
        <path d="M72.44,113.05c6.37-4.7,28.86-10,28.86-10s2.6.4,3.78-1.44c0,0-7.56,0-8.36-1.64-21.5,5.9-10.94,4-27.86,10.4,0,0,3,3.2,3.58,2.6Z" fill="#bc3431"/>
        <path d="M57.9,83.83c.8.2,1.6,0,2.6.2a7.784,7.784,0,0,0,3.78,0c-2.2-.8-4.77-.6-6.57-2.24a3.6449,3.6449,0,0,1,.2,1.5" fill="#010101" opacity="0.15" style="isolation: isolate"/>
        <path d="M60.9,79.13s1-10.2,6.37-11.03c0,0,19.3,5.92,23.68-10.83,0,0-12.14,5.5-18.5,5.1-6.18-.7-15.73,5.5-13.54,15.9l2,.8Z" fill="#010101" opacity="0.12" style="isolation: isolate"/>
        <g mask="url(#q)">
          <path d="M95.13,77.5s18.1-3.68,30.05-2.66c-1.2,11.89-14.33,20.09-16.32,20.89-5.96,2.2-8.76,3.43-20.7-1.9C69.66,85.67,95.13,77.5,95.13,77.5Z" fill="#966c47"/>
        </g>
        <path d="M82.6,89.55c1.4-5.1,12.73-9.6,12.73-9.6s17.5-5.1,29.65-5.1c-11.94-1.44-30.05,1.83-30.05,1.83S75.03,82.2,82.59,89.55Z" fill="#8a5e3e"/>
        <g mask="url(#r)">
          <path d="M101.5,102.01l3.8-5.73s-10.17-14.5-22.9-13.9c0,0-1.4,1.85-1.6,2.05,0,.2,14.72,6.54,20.7,17.58" fill="#a62928"/>
        </g>
        <g mask="url(#s)">
          <g opacity="0.1">
            <g mask="url(#t)">
              <path d="M88.77,83s-2.8,2.66-3.2,3.88-4.94-.82-4.94-.82l-.4-1.22,1.2-2.86L88.76,83Z" fill="#010101"/>
            </g>
          </g>
        </g>
        <g mask="url(#u)">
          <path d="M103.89,96.91s-9.34-13.28-22.1-13.48c0,0-1.18-.2-1.38,0-.4.2-10.95,17.77,1.2,25.33,12.13,7.77,22.08-10,22.08-10s.4-1.64.2-1.85" fill="#cc3936"/>
        </g>
        <g mask="url(#v)">
          <g opacity="0.1">
            <g mask="url(#w)">
              <path d="M88.38,84.04s-10.57,8.37-11.96,16.14c-1.4,7.56-5.56-3.9-5.56-3.9l6.76-10L81.6,82.4l6.77,1.64Z" fill="#010101"/>
            </g>
          </g>
        </g>
        <path d="M104.3,102.63c1.18-.4,3.77-3.68,3.97-3.88l-2.8-1.23-2.18,3.88-2.4.62s2.2,1.02,3.4.6Z" fill="#ab3130"/>
        <path d="M106.52,100.58c0-.2,0-.62-.42-.62-.2,0-.62,0-.62.42,0,.2,0,.62.4.62.22,0,.64,0,.64-.42" fill="#7c2423"/>
        <path d="M196.44,80.98h73.24V35.81H196.44Z" fill="#da9b5c"/>
        <path d="M196.44,35.61h73.24V33.36H196.44Z" fill="#c79669"/>
        <path d="M196.44,83.02h73.24V80.77H196.44Z" fill="#fec989"/>
        <path d="M198.62,35.61l-2.2-2.25V83.01h2.2Z" fill="#fec989"/>
        <path d="M267.08,35.61l2.4-2.25V83.01l-2.4-2.04Z" fill="#c79669"/>
        <path d="M196.44,130.63h73.24V85.47H196.44Z" fill="#da9b5c"/>
        <path d="M196.44,85.28h73.24V83.02H196.44Z" fill="#c79669"/>
        <path d="M196.44,132.68h73.24v-2.26H196.44Z" fill="#fec989"/>
        <path d="M198.62,85.26l-2.2-2.25v49.67h2.2Z" fill="#fec989"/>
        <path d="M267.08,85.26l2.4-2.25v49.67l-2.4-2.06Z" fill="#c79669"/>
        <path d="M196.44,180.28h73.24V135.11H196.44Z" fill="#da9b5c"/>
        <path d="M196.44,134.91h73.24v-2.25H196.44Z" fill="#c79669"/>
        <path d="M196.44,182.52h73.24v-2.25H196.44Z" fill="#fec989"/>
        <path d="M198.62,134.91l-2.2-2.24v49.8h2.2Z" fill="#fec989"/>
        <path d="M267.08,134.91l2.4-2.24v49.8l-2.4-2.3Z" fill="#c79669"/>
        <path d="M163.8,181.91h19.7V28.66H163.8Z" fill="#484a49"/>
        <path d="M173.54,120h5.97V105.3h-5.9Zm0,25.95h5.97v-9.4h-5.9Zm0,27.58h5.97v-9.4h-5.9Z" fill="#e4d030"/>
        <path d="M163.8,164.13h4.97V28.66H163.8Z" fill="#9f9ea1"/>
        <path d="M183.5,33.36h91.15v-4.7H183.5Z" fill="#484a49"/>
        <path d="M13.73,61.76H63.88V20.49H13.73Z" fill="#195470"/>
        <path d="M63.88,61.76h60.7V20.49H63.88v21.3l-26.86,6.2v13.9ZM5.78,64.22v32.7H33.24V48.28L15.32,42.56V20.49L0,28.29v33.5Z" fill="#cc3938"/>
        <path d="M124.6,20.48l36.2,9V68.1H124.6Z" fill="#9b2121"/>
        <path d="M124.6,61.76l50.93,4.3-9.75,7.15H122.4L111.65,61.76Z" fill="#cc3938"/>
        <ellipse cx="160.0099" cy="30.29" rx="26.07" ry="26.77" fill="#29282a"/>
        <ellipse cx="160.0099" cy="30.29" rx="17.51" ry="17.98" fill="url(#x)"/>
        <ellipse cx="160.0099" cy="30.29" rx="11.34" ry="11.65" fill="#29282a"/>
        <ellipse cx="160.0099" cy="30.29" rx="7.76" ry="7.97" fill="#cc9341"/>
        <ellipse cx="38.8" cy="24.37" rx="20.5" ry="21.05" fill="#29282a"/>
        <ellipse cx="38.8" cy="24.37" rx="13.73" ry="14.1" fill="url(#y)"/>
        <ellipse cx="38.8" cy="24.37" rx="8.76" ry="8.99" fill="#29282a"/>
        <ellipse cx="38.8" cy="24.37" rx="6.17" ry="6.33" fill="#cc9341"/>
        <path d="M140.1,89.96l-28.45,91.95h6.57l30.45-91.54,9.75-17.2H133.74ZM49.75,189.48h68.46v-7.57H49.8Zm61.9-127.72H33.25V96.91l16.5,85h8.16l9.4-81.12Z" fill="#484a49"/>
        <path d="M211.56,112.64h37.6V99.77h-18.7v-2.1h-8.35v2H211.8l-.2,12.8Zm2-10.83h4.17v6.54h2v-6.54h1.98v8.6h-8.3l.2-8.6Zm10.34,8.6V99.57h4.18v2.2h4.18v8.6H223.9Zm4.18-2.06h2.2v-4.5h-2.2Zm6.36,2.05v-8.6h4.18v6.35h2v-6.34h1.98v6.34h2v-6.34h2v8.6H234.44Zm-22.88,50.46h37.6V147.99h-18.7v-2h-8.35v2.1H211.8l-.2,12.9Zm2-10.62h4.17v6.54h2v-6.54h1.98v8.58h-8.3l.2-8.58Zm10.34,8.58V147.99h4.18v2.3h4.18v8.6H223.9Zm4.18-2.25h2.2v-4.5h-2.2Zm6.36,2.2v-8.6h4.18v6.3h2v-6.4h1.98v6.3h2v-6.4h2v8.71H234.44Zm-22.88-94.4h37.6V51.47h-18.7v-2.1h-8.35v2H211.8l-.2,12.8Zm2-10.8h4.17v6.5h2v-6.6h1.98v8.6h-8.3l.2-8.6Zm10.34,8.6V51.27h4.18v2.2h4.18v8.6H223.9Zm4.18-2.1h2.2v-4.5h-2.2Zm6.36,2v-8.6h4.18v6.3h2v-6.4h1.98v6.31h2V53.34h2v8.6H234.44Z" fill="#1c140f"/>
      </g>
    </symbol>
  </defs>
  <title>Forklift2</title>
  <g>
    <rect width="523.5181" height="236" fill="#2481b7"/>
    <rect width="512" height="134.7368" fill="#2481b7"/>
    <g mask="url(#z)">
      <path d="M521.74,104.6135l-.7545.9432H519.503l-.77-.9432H521.74Zm.1347.9432h-.666l.666-.8315Zm0,7.1757-1.5206-1.8863,1.3089-1.6323h.2117v3.5186Zm0,2.0557h-1.2935l1.27-1.6053V114.8Zm0,2.175-.8354-1.0394h.8354Zm0,2.9642h-1.02l-.5-.6275,1.5206-1.8863v2.5138Zm-2.0249,0,.385-.4889.3849.4889h-.77Zm-1.27,0v-2.5484l1.54,1.9248-.5.6544H518.579Zm0-14.3706v-.8623l.693.8623Zm.4619,3.6571h2.3868l-1.2319,1.4937-1.1934-1.4937Zm-.4619,3.5494v-3.5494h.231l1.3088,1.6284-1.54,1.9248Zm.1155.1,1.5014-1.8863,1.5013,1.8863h-3.0027Zm1.3859,1.9248-1.3859-1.6938h2.9642l-1.3859,1.6938H520.08Zm-1.54,0V113.152l1.3089,1.6361Zm.8469,1.1356-.8854,1.07v-1.0394h.8469Zm2.2713,1.4013-1.5014,1.8363-1.4628-1.8363Zm-3.0027-.231.9239-1.17h1.1549l.9239,1.1742h-3.0412Zm-.2695-12.48v.9432h-9.0081v-1.1742H507.877v-.3h11.9723v.308H518.348v.2232Zm0,8.25v1.9248h-4.2346a2.49,2.49,0,0,0-2.1557,1.2319h-2.1173v-.1348a.9625.9625,0,0,0-.5-.8469v-4.6311h.0385a.3465.3465,0,0,0,0-.6814h-.0385v-.512h9.0081Zm0,4.2346v2.8294h-1.0009v-.177a3.7342,3.7342,0,0,0-3.7341-3.7342,1.3646,1.3646,0,0,1,.5-.0924h4.2346v1.1742Zm-2.7332,2.8294h-2.8872v-2.2135h.8469a2.04,2.04,0,0,1,2.0018,2.04v.1732Zm-4.0036,0h-2.2713V118.734a.97.97,0,0,0,.5-.847v-.1732H511.65v2.2135Zm-2.3868-14.3706H508.57l.6544-.8315v.8315Zm0,4.2076a.3475.3475,0,0,0-.154.154l-.5389-.0077h-.1155l.5389-.6929h.1925v.5774Zm0,2.9642-1.1933-1.4474v-.462c0-.1424-.0385-.2694-.0385-.3849l.154-.2118h.3464c.1925,0,.3465-.0077.5-.0154a.3843.3843,0,0,0,.154.1617v2.3637Zm0,2.2559a.77.77,0,0,0-.3849-.077h-.154V113.791l.5-.6544v1.8093Zm-.154-1.9248-.3849.462v-.462h.3849Zm-.3849-.231c-.0385-.5-.231-.8854-.462-.8854H508.07v-.4619l1.0393,1.3088h-.4234Zm.5,7.0448h-.8084a4.6588,4.6588,0,0,0-.5-.9239l.1155-.1924h.8084a1.1248,1.1248,0,0,0,.3465-.077v1.1163ZM507.8,118.7955l-.0385-.0384-.0385.0384Zm-.4235-8.3921-.2309-.27h.2309l-.0384.231Zm-.0384.3079v.1155l-1.4629,1.8094v-2.3868c.0385,0,.077.0385.1155.0385a.3465.3465,0,0,0,.308-.231h.5774l.385.5005v.0769Zm0,1.1549h-.231c-.231,0-.4235.385-.4619.8854h-.693l1.3089-1.6553v.77Zm-.6545,1.8863-.6544-.77h.616v.77Zm0,1.0394h-.1924a.9631.9631,0,0,0-.6545.231v-2.04l.8085,1.0009v.77Zm-.8084,5.0046v-.308a2.3231,2.3231,0,0,1,.308.308Zm.8855-14.3591-.77-.9625h3.0028l-.77.924h-1.4628Zm-.462,3.6571h2.4253l-.5774.6929h-1.27Zm-.4619-3.6571v-.8855l.6929.847h-.6929Zm.231,3.6571.5774.6929h-.3465a.3464.3464,0,0,0-.4481-.1981l-.0138.0056v-.5389h.231Zm-.3465-4.62v.9625h-5.12a8.1861,8.1861,0,0,0-3.5032.77v-1.9248h-1.4629v-.308h11.5874v.308h-1.5014v.1924Zm0,5.197a.3468.3468,0,0,0-.1155.231.3328.3328,0,0,0,.1155.231v4.97a.9622.9622,0,0,0-.231.5967v.1539h-.4234a3.7345,3.7345,0,0,0-2.7333,1.1934H497.06v-6.1786a4.3693,4.3693,0,0,1,3.4646-1.7324h5.12v.616Zm0,10.0861h-2.6563v-.154a3.3906,3.3906,0,0,1,.077-.6545h1.2319a2.2152,2.2152,0,0,1,1.3089.4235v.385Zm-4.35-.1925v.1925h-4.2731v-.8046H501.41a3.58,3.58,0,0,0-.077.6467ZM496.9865,106.25a7.6653,7.6653,0,0,0-1.1356.693l-.4081-.4889,1.5013-1.8864v1.6939Zm0,6.3211-.52-.6352a4.2326,4.2326,0,0,1,.5005-1.0009v1.6169Zm-.7315.1309c.0385-.1925.077-.385.1309-.5775l.4619.5775Zm.5659.231-.6159.7853v-.2695a2.2626,2.2626,0,0,1,.0385-.512h.6159Zm.154,3.8688-.77-.9624V114.03l.77-.9624v3.7341Zm-.77.1155v-.77l.6814.8469h-.6544Zm0,2.8488h.77v-.8123h-.77v.8123ZM494.28,108.4478h-.4235l1.5014-1.8479.3849.462a8.0649,8.0649,0,0,0-1.4243,1.4244Zm-.281.3849-.1155-.154h.2579l-.1155.154Zm-.2695.462v-.539l.1925.2695-.1925.308Zm1.54-2.8487-1.54,1.9248V104.71l1.54,1.9171Zm-1.3859-2.0018h3.0027l-1.5013,1.8863-1.5014-1.8478Zm-.2695,0v5.043a7.9954,7.9954,0,0,0-1.0393,3.9651v6.3519H491.574v-15.822h3.5416v.308H493.63v.231Zm-2.1327-8.7772-1.54-1.8478,1.5244-1.8863v3.7726Zm0,4.2346-1.54-1.8478,1.5244-1.8863V99.94Zm0,3.1952h-.8469l-.6929-.8469,1.5206-1.8863v2.7332Zm0,1.0394-.154-.1925h.154Zm0,1.8093h-1.0779l1.1164-1.3474v1.3474Zm-1.9633,0-1.1548-1.4243h2.9526l-1.1549,1.4628h-.6159Zm-1.3473,0V104.71l1.1164,1.3858h-1.1164Zm-.1155-14.1281V103.17h-8.4692V91.3131h10.009v.308h-1.4629v.2309Zm0,12.4728v1.6938h-3.08v-1.6592h-1.4629v-.308h4.581v.3388ZM484.86,105.984h-1.078l1.101-1.3474v1.3859Zm-1.9633,0-1.1934-1.4628h3.0027L483.54,105.984h-.6429Zm-1.3474,0V104.71l1.1164,1.3858H481.55Zm-.1155-1.4628v1.4628h-1.8863V103.94h3.4146v.3079h-1.4629v.231Zm6.6983-8.7772v-3.85l1.54,1.9248Zm.154.077,1.5014-1.8478L491.32,95.86h-2.9642Zm.0308.231H491.32L489.8185,97.9Zm-.154,3.9266v-3.738l1.54,1.9171-1.54,1.9248Zm.154.1155,1.5014-1.8863,1.5013,1.8863h-3.0027Zm.0193.231h2.9642l-1.5014,1.8478-1.5014-1.8093Zm.8854,2.81.5775-.6929.5774.7314H489.26Zm-.6737.8469H491.05l.2694.3465h-3.0412l.2695-.3465Zm-.4081-.8469v-2.7717l1.54,1.9248-.6853.8469H488.14Zm.1694.8469-.1809.231v-.231h.1809Zm2.9758-12.1263-1.5014,1.8478-1.5014-1.8478ZM478.4659,69.5666h.8084V67.4878h-.8084Zm0,2.2712h.8084v-2.16h-.8084v2.16Zm0,2.2328h.8084V71.988h-.8084v2.0826Zm0,2.2328h.8084V74.2246h-.8084v2.0788Zm0,2.2713h.8084V76.4959h-.8084v2.0788Zm0,2.2713h.8084V78.7287h-.8084Zm0,2.2327h.8084V80.8421h-.8084v2.2366Zm0,2.2328h.8084v-2.16h-.8084v2.16Zm0,2.2328h.8084V85.4617h-.8084v2.0826Zm0,2.2328h.8084V87.66h-.8084Zm0,.6929h.8084v-.5389h-.8084V90.47Zm.8084,1.5784h-.1925v-.385h-.5774v-.308h.8084v.693Zm-.1925,2.2328h.1925V92.006h-.231v2.1173Zm.1925,2.2327h-.231V94.3158h.231v2.1981Zm-.231,2.2713h.231v-2.16h-.231v2.16Zm.231,2.2328h-.231V99.0932h.1925v2.1173Zm-.231,2.1558h.1925v-2.04h-.231v2.0018Zm.1925,2.31h-.231v-1.54h.1925v1.5014Zm-.231.5389h.1925v-.385h-.2309v.385Zm-.1155-13.9741h-.0384l.0384-.0385Zm0,2.2712h-.5V92.6258l.308-.3849h.154v2.1172Zm0,1.5014-.5-.5774v-.77h.4619V95.821Zm0,.77H478.62l.231-.3079v.3079Zm0,2.2328h-.5V96.86l.1155-.154h.3465v2.1173Zm0,1.2319-.5-.5775v-.3849h.4619v1.0779Zm0,1.0009h-.4619l.4619-.5775Zm-.5,2.1558h.4619v-2.04h-.4619Zm.4619,1.0394-.154-.1925h.154Zm0,1.27h-.4619v-.231l.4619-.5775v.8085Zm-.4619.5389h.4619v-.385h-.4619Zm0-1.4244h.308l-.308.385Zm0-.5774h.0769l.2695.3465h-.3465v-.3465Zm0-3.6571h.308l-.3465.4234v-.3849Zm0-.6545.3464.462h-.3464v-.462Zm0-3.5416h.3464l-.3464.4234V96.206Zm0-.6545.3464.4235h-.3464v-.4235Zm0-3.28h.1155l-.1155.1385v-.1385Zm0-.2888h.3464l-.154.154H478.35v-.1617Zm-1.54-22.2893h1.27v-2.31h-1.27v2.31Zm0,2.2328h1.27V69.6782h-1.27v2.2482Zm0,2.2559h1.27V71.988h-1.27v2.1943Zm0,2.2328h1.27V74.2977h-1.27V76.415Zm0,2.2327h1.27V76.5305h-1.27Zm0,2.2328h1.27v-2.31h-1.27v2.31Zm0,2.2713h1.27v-2.31h-1.27v2.31Zm0,2.2328h1.27V83.1519h-1.27v2.2328Zm0,2.2328h1.27V85.4617h-1.27v2.1558Zm0,2.2558h1.27V87.7561h-1.27Zm0,.693h1.27v-.5775h-1.27Zm.6544,1.1549h.616v-.308h-.616Zm-.6544.3849h1.27v-.154h-1.27Zm1.27.5775L477.234,93.8l-.385-.462V92.006h1.27v.6776Zm0,1.6553h-.4619l-.3465-.385.77-.9855v1.3859Zm0,.5775-.3465-.4235h.3465v.4235Zm0,1.0394h-1.27V94.57l.077-.077h.6159l.5775.6929v.77Zm-1.27.6544h1.27v-.4235h-1.27Zm1.27.308-.8854,1.1163-.385-.5v-.77h1.27v.154Zm0,1.9017H477.85l-.539-.6545.8084-.9624V98.82Zm0,.3079-.154-.1539h.1155v.1924Zm0,1.0779h-1.27V99.0509h.9239l.3465.4619v.6929Zm-1.27.8855h1.27v-.6545h-1.3089v.6545Zm1.27,2.1942h-.1155l-.6929-.8469.8084-.9624v1.8093Zm-1.3089,1.1934h1.27v-.3464h-1.27v.3464Zm1.27.9624-.154.1925h-1.1164V104.71h1.3089v.7314Zm0,.693h-.3464l.3079-.385h.0385Zm-1.2318,0-.077-.077v-.308h1.0009l-.308.385h-.6159Zm-.077-3.08.385-.462.5774.7314h-.9624v-.2694Zm0-.9624.2694.3464-.2694.3465v-.6929Zm0-.847h1.2319l-.8469,1.0394-.385-.4889v-.55Zm0-2.4252.385-.5005.4234.539h-.8084Zm0-.9624.2694.3464-.2694.3465v-.6929Zm.385-3.7611.1924.2695h-.4234l.1925-.2695Zm-.385-.4735.2694.3465-.2694.3464v-.6929Zm0-1.8863h.1155v-.308h-.1155Zm-.27-22.0584h-.7314V67.5609h.7314Zm-.77,2.2328h.7314V69.6782h-.7314V71.911Zm0,2.2328h.7314V71.988h-.7314v2.1558Zm0,2.2328h.7314V74.4518h-.7314v1.9248Zm0,2.2328h.7314V76.4921h-.7314Zm0,2.2327h.7314V78.7248h-.7314Zm0,2.2559h.7314V80.8421h-.7314V83.098Zm0,2.2328h.7314V83.1519h-.7314v2.1789Zm0,2.2328h.7314V85.4617h-.7314v2.1019Zm0,2.2328h.7314V87.8716h-.7314v1.9248Zm0,.6929h.7314v-.5466h-.7314v.5466Zm0,1.1549h.7314v-.308h-.7314Zm.7314.385h-.6929l-.0385-.0385v-.1155h.7314Zm0,.9162-.6159-.77h.6159Zm0,1.3473h-.7314v-2.04l.7314.9624Zm0,.27-.77.9239V94.3312h.7315V94.47Zm0,1.3089h-.7314v-.1155l.7314-.9239v1.0394Zm0,.6544h-.4619l-.2694-.308v-.1154h.7314v.4234Zm0,.6544-.3849-.5h.3849Zm0,1.6015h-.7314V96.6256h.1155l.6159.77v1.3859Zm0,1.3474h-.7314v-.1425l.7314-.9508v1.0933Zm0,.8854h-.3079l-.462-.5775v-.1039h.7315v.6544Zm0,.3849-.1924-.2309h.1924Zm0,1.6169-.1539.1925h-.616v-1.9249h.3465l.385.5v1.3474Zm0,1.3858h-.7314v-.1154l.154-.1925h.5774Zm0,1.1549h-.0769l-.6544-.8084v-.077h.7314v.8854Zm0,.539h-.7314v-.385h.539l.2309.2695v.1155Zm-.77-1.0779.4235.5774h-.4235v-.5774Zm0-4.2346.231.2887h-.231v-.2887Zm0-1.8093h.6544l-.6544.8084v-.8084Zm0-2.4253v0ZM474.27,69.3318h.77V67.5609h-.77Zm-1.3859,0h.77V67.5609h-.77Zm-1.4089,0h.77V67.5609h-.77Zm-1.3859,0h.77V67.5609h-.77Zm-1.3859,0h.77V67.5609h-.77Zm-1.3858,0h.77V67.5609h-.77Zm-1.3859,0h.77V67.5609h-.77Zm-1.3858,0h.77V67.5609h-.77Zm-.616,31.7825h-1.7323V85.4078h-1.3089v-.4235H463.93ZM462.082,89.5269l-1.1934-1.5014v-.8084l1.1934-1.4782v3.788Zm0,4.2346L460.8886,92.26v-.8084l1.1934-1.4629Zm0,4.2346-1.1934-1.5014v-.8469l1.1934-1.4629v3.8112Zm0,3.1182h-.8854l-.308-.385v-.8469L462.082,98.42v2.6948Zm-1.1934,0v-.1155l.077.1155Zm-.1924-51.508L458.2709,47.99V47.35l2.4253-1.6554v3.9113Zm0,4.2346-2.4253-1.6169v-.639l2.4253-1.6169v3.8728Zm0,4.2346-2.3868-1.6169V55.82l2.4253-1.6245v3.78Zm0,4.2346-2.3868-1.6169v-.6391l2.4253-1.64v3.7726Zm0,4.273-2.3868-1.6322v-.6622l2.4253-1.6553v3.8111Zm0,4.2346-2.3868-1.6553v-.6391l2.4253-1.6438v3.9536Zm0,4.2231-2.3868-1.6169v-.5l2.4253-1.6169v3.7727Zm0,4.2345-2.3868-1.6168V77.158l2.4253-1.6168v3.7726Zm0,4.2731-2.3868-1.6168v-.5159l2.4253-1.6168v3.7726Zm0,.616h-.231l.231-.154Zm0,3.0681-.231.308-1.5014-1.8478h1.7324v1.54Zm0,.5775-.0385-.0116-.077-.1155.1155-.154V87.81Zm0,1.8863h-1.7324l.4235-.539,1.3089-.8854Zm0,1.7978-.231.2694-1.486-1.867h1.7324v1.5783Zm0,.5389-.0385-.0385-.077-.1155.1155-.154v.308Zm0,1.8863h-1.7324l.462-.5774,1.3088-.8854v1.4243Zm0,1.7708-.231.2695-1.4821-1.8478h1.7323v1.5668Zm0,.539-.0385-.0385-.077-.077.1155-.154v.27Zm0,1.9094h-1.7555l.385-.462,1.3858-.9624v1.4244Zm0,1.7708-.231.308L459.0023,98.37h1.7131v1.54Zm0,.5775-.1156-.154.1156-.154Zm0,.6544h-.2695l.2695-.154v.154Zm-.3465-.5.0385-.077.0769.077H460.35Zm-.4235.5.231-.2695h.2694l-.4.2695h-.1Zm-1.1164,0v-.2695h1.1356l-.2309.2695H458.81Zm0-14.6286V85.75l1.3628,1.6554-1.3858-.924Zm1.3474,1.4244H458.81V86.7821l1.4629.9624-.1386.154ZM458.81,89.2844v-1.128h1.1549l-.5774.7122-.5775.3849Zm0,.3464v-.077l.077-.077-.077.1155Zm0,1.1549v-.77l1.3474,1.6938Zm1.3089,1.4244H458.81V91.0552l1.4629,1.0009ZM458.81,93.5189V92.391h1.1318l-.5775.6929-.5774.385Zm0,.3465v-.077l.077-.0539-.1.1155Zm0,1.1549v-.77l1.3474,1.6938Zm1.3089,1.4244H458.81V95.29l1.4629.9624-.154.154ZM458.81,97.792V96.6371h1.1549l-.6159.77-.5313.3464Zm0,.2695.0385-.0231-.0385.0385Zm1.4629,2.4638-.1155.1539h-1.3089V99.5628l1.4244.9625Zm-1.4243-1.2589V98.458l1.4243,1.7708Zm1.54-2.8487.0385-.0616.0847.0693h-.154Zm.1155.231-.6544.4427.3465-.4235h.2694Zm-.1155-4.4656.0385-.0577.077.077h-.1386Zm.077.231-.539.3657.2695-.3465h.2425Zm-.077-4.4656.0385-.0385.077.0385Zm.077.231-.539.385.308-.37h.2464Zm-1.7323-2.4637v.77l-.385-.2695v-.5274l.9239-.6159h.9624v.4234h-1.5013v.2195Zm0,2.2712h-.385V86.4857l.385.27Zm0,1.3859-.385.2695v-1.486h.385v1.2165Zm0,.3465V90.72l-.385-.2695V89.95l.385-.2694v.0385Zm0,2.5022h-.385V90.72l.385.2694Zm0,1.4051-.385.2695V92.391h.385v1.2357Zm0,.3465v.9893l-.385-.2694v-.5005l.385-.2694v.05Zm0,2.5022h-.385V94.9741l.385.2695Zm0,1.4244-.385.27v-1.54h.385V97.9Zm0,.308v1.0278l-.385-.2694v-.5005l.385-.2695v.0116Zm0,2.5022h-.385V99.2472l.385.2694Zm-.385.5005h.385v-.2695h-.385v.2695Zm0-16.13h.5389l-.5389.37v-.37Zm0-1.09h2.1558l-.385.2695h-1.7708v-.2695Zm0-1.6938,2.175,1.5013h-2.1942V82.3165Zm0-2.5023h2.1558l-2.1558,1.4629V79.795Zm0-1.7323,2.2328,1.5013h-2.2328Zm0-2.5023h2.1173l-2.1173,1.4244V75.56Zm0-1.7323,2.1943,1.5014h-2.1943Zm0-2.5407h2.1365l-2.1172,1.4243V71.218Zm0-1.7324,2.1943,1.5014h-2.1943Zm0-2.5022h2.1558l-2.1558,1.4628V67.0528Zm0-1.6939,2.175,1.4629h-2.1942V65.3589Zm0-2.5407h2.1558l-2.1558,1.4628V62.8182Zm0-1.7324,2.2328,1.5014h-2.2328Zm0-2.5022h2.1173l-2.1173,1.4244V58.5836Zm0-1.7323,2.1943,1.5013h-2.1943Zm0-2.5254h2.1365l-2.1288,1.4629V54.28Zm0-1.6938,2.1943,1.4628h-2.1943V52.6321Zm0-2.5408h2.1558l-2.1558,1.4629V50.0913Zm0-1.6938,2.175,1.4628h-2.1942V48.359Zm0-2.5408h2.1558L458.3479,47.32V45.8567Zm2.6178,52.5859h1.0393l-1.0393,1.29v-1.29Zm0-1.5591,1.0779,1.3474h-1.0779Zm0-2.6947h1.0393l-1.0393,1.27v-1.27Zm0-1.5784,1.0779,1.3474h-1.0779Zm0-2.6716h1.0393l-1.0393,1.3089Zm0-1.54,1.0586,1.3089h-1.0509V88.3989Zm0-2.6947h1.0393l-1.0393,1.3089ZM457.193,47.3619l-2.1173-1.4243h2.1173v1.4243Zm0,.847-2.3867,1.6168V45.8105l2.4021,1.6323V48.02Zm0,1.7323h-2.1173l2.125-1.4629V49.93Zm0,1.6553-2.1173-1.4243h2.0788V51.585Zm0,.8469L454.8063,54.06V50.0451l2.4021,1.6361v.5774Zm0,1.7324h-2.1558l2.1558-1.4629Zm0,1.6361-2.0788-1.4244h2.0865v1.4244Zm0,.8469-2.3867,1.6361V54.28l2.4021,1.6284v.5774Zm0,1.7439h-2.1558L457.193,56.94Zm0,1.6284-2.0788-1.4244h2.0788Zm0,.8469-2.3867,1.6553v-3.85l2.4021,1.6553v.5775Zm0,1.7708h-2.1558l2.1712-1.4629v1.5014Zm0,1.6938-2.1173-1.4243h2.1173Zm0,.8469-2.3867,1.6554v-4.096l2.4021,1.6322v.5775Zm0,1.7324h-2.1173l2.125-1.4244v1.4359Zm0,1.6553-2.1173-1.4243h2.0788v1.4243Zm0,.8469L454.8063,71.08V67.23l2.4021,1.6169v.5774Zm0,1.7324h-2.1558l2.1558-1.4629Zm0,1.6553-2.0788-1.4244h2.0865v1.4244Zm0,.8469-2.3867,1.6554v-3.85l2.4021,1.6169v.5774Zm0,1.7439h-2.1558L457.193,73.94Zm0,1.6361-2.0788-1.3859h2.0788v1.3859Zm0,.8469-2.3867,1.6553v-3.85l2.4021,1.6323v.5774Zm0,1.7708h-2.1558l2.1712-1.4628v1.4782Zm0,1.6554-2.1173-1.4244h2.1173Zm0,.8469-2.3867,1.6553v-3.85l2.4021,1.6553v.5775Zm0,1.7323h-2.1173l2.125-1.4243V83.93Zm0,.5h-1.7323l-.385-.2695h2.0788v.2695Zm0,1.1549-.4619-.308h.47v.308Zm0,.8469-2.3867,1.6553V85.0767h1.54l.8854.6159V86.27Zm0,1.7323h-2.1558l2.1558-1.44v1.44Zm0,1.6553-2.0788-1.4243h2.0865v1.4243Zm0,.847-1.5206,1.0394h-.8854V88.2026l2.4253,1.6322v.5775Zm0,1.0394h-1.1164l1.1164-.7315v.7315Zm-2.3867-7.4683.2694.1925h-.2694V84.199Zm-.1925,3.9651v3.5417h-.6391V85.1614h.6391v3.0027Zm-7.8918,3.5417h3.6572V85.1614H446.722v6.5444ZM445.0282,84.43h-1.9633V60.5623a5.3374,5.3374,0,0,0-1.5014-3.8881v-.8854h-.1924V53.4405H439.87a2.13,2.13,0,0,1,1.9248-1.8863h1.2319c1.1164,0,2.01,1.1549,2.01,2.6177V84.2375Zm-.8469,1.27h.8469v-.6236h-.8469V85.7Zm-1.1164,0h.539v-.6236h-.539V85.7Zm1.9633.693-1.1549,1.3858-.8469-1.0009v-.9316h1.9248v.462Zm0,2.7717H444.99l-1.0009-1.2319,1.0009-1.27v2.4637Zm-1.9633-.3465v-1.817l.693.8854-.7315.8854Zm0,.308V89.05l.8084-1.0009.8469,1.0779h-1.6553Zm-2.1943-33.1837h.385v-2.31h-.4235V55.82Zm-.5,0h.4234v-2.31H440.37v2.31Zm-.077,0h-.385v-2.31h.385v2.31Zm-.5-.0385-.1155-.0385V54.28a3.17,3.17,0,0,1,.077-.6159h.0616V55.82Zm-1.8093-1.5784v-.77h.0385a3.17,3.17,0,0,0-.0385.6159Zm-.077,1.5091c-.1308,0-.2694.0385-.3965.05v-2.31h.4235V55.731Zm-.4619.077h-.385v-2.31h.4119V55.808Zm-.8854,0h.3849v-2.31h-.3849v2.31Zm-.5,0h.4235v-2.31h-.385V55.82Zm-3.3609-34.7391h.5968v-1.79h-.5968Zm-1.0932,0h.6005v-1.79h-.6005Zm-1.0895,0h.5968v-1.79h-.5968Zm-1.0894,0h.5967v-1.79h-.5967Zm-1.0933,0h.5967v-1.79h-.5774v1.79Zm-1.0932,0h.6005v-1.79h-.6005Zm-1.0857,0h.5928v-1.79h-.5928Zm-1.0971,0h.6v-1.79h-.5774v1.79ZM422.939,88.8262h-3.1182V72.4384h-1.4744v-.385H417.8v.385h-1.5013v16.384H406.79V72.4345h-1.4859V72.05h-.5506v.3849h-1.4628v16.384h-1.27l-3.5417-16.8074H423.347l-.385,16.8074Zm-3.2337-12.2687-1.5206-1.8863,1.5206-1.894Zm0,4.2269-1.5206-1.8863,1.5206-1.8864Zm0,4.2346-1.5206-1.8941,1.5206-1.8863v3.78Zm0,3.8111H419.37l-1.1857-1.4783,1.5206-1.8863V88.83Zm-2.7063,0,1.0779-1.34,1.0779,1.3358H416.999Zm.9624-5.7052-1.54,1.9248V81.2Zm0-4.2346-1.54,1.9249V76.9771l1.54,1.9171Zm0-4.223-1.54,1.9248v-3.85Zm-1.3859-2.0018h3.0027l-1.5013,1.8671-1.5014-1.8478Zm-.0077,4.0113,1.5014-1.8709,1.5129,1.8709h-3.0143Zm.0154.231h2.9835l-1.5014,1.8478-1.5013-1.8478Zm-.0231,4.0036,1.5129-1.8786,1.54,1.8863H416.61Zm.0308.231h2.9642L418.073,82.99,416.61,81.1424Zm2.9642,4.2346-1.4821,1.8362L416.61,85.3808h2.9642Zm-3.0027-.2233,1.5205-1.894,1.54,1.894h-3.06Zm-.1348,3.6725V85.4309l1.5784,1.9248-1.1934,1.4705h-.385Zm-9.74-12.2687-1.5014-1.8863,1.54-1.8941v3.78Zm0,4.2346-1.5014-1.8979,1.54-1.8863v3.78Zm0,4.223-1.5014-1.8863,1.54-1.894v3.78Zm0,3.8111h-.308l-1.1934-1.4744,1.54-1.8863v3.3877Zm-2.6948,0,1.0779-1.3358,1.0779,1.3358h-2.1558Zm.9624-5.6974-1.54,1.9132V81.2271l1.54,1.9248Zm0-4.2346-1.54,1.9248V76.9771Zm0-4.2269-1.54,1.9248V72.75ZM403.56,72.6655h3.0027l-1.5014,1.8671L403.56,72.6848Zm0,4.0113,1.5013-1.8709,1.5014,1.8709Zm.0385.231h3.0027l-1.4629,1.8478-1.4629-1.8478Zm0,4.0036,1.54-1.8786,1.54,1.8863h-3.0028Zm.0384.231h2.9642L405.1382,82.99l-1.4629-1.8478Zm2.9642,4.2346-1.4628,1.8362-1.4629-1.8324H406.64Zm-3.0027-.2233,1.54-1.8863,1.54,1.8863h-3.08Zm-.1155,3.6725V85.4309l1.54,1.9248-1.1934,1.4705Zm-6.8523-19.5176h1.1164V67.5609h-1.1164v1.7477Zm-1.3474,0H396.4V67.5609h-1.0779v1.7439Zm-1.3474,0h1.1164V67.5609h-1.1164v1.7477Zm-.6159,0h.385V67.5609h-.3465v1.7439Zm-.1925-11.78L390.7405,55.9v-.5l2.4253-1.6168v3.7726Zm0,4.2346-2.3868-1.6361v-.539l2.4253-1.6553v3.7726Zm0,4.223L390.7405,64.37v-.5005l2.4253-1.6168v3.7726Zm0,1.3089h-1.2319l1.2319-.8469Zm-.5,2.04h.5389V67.6032h-.5v1.7709Zm-.231,0h-.5775l-.5389-.3465V67.7534l.231-.154h.8854v1.7362Zm-1.1164,0v-.077l.154.1155h-.1155Zm-.5-2.0018V66.41h2.1173l-1.3473.9239Zm.2695.3464-.2695.1925v-.231h.2695V67.68Zm0,1.1549-.2695-.154v-.5428l.2695-.1693v.8661Zm0,.5775h-.2695v-.5043l.2695.1771v.3272Zm-.2695-4.6581,2.1943,1.5014H390.779V64.7545Zm0-2.5022h2.1558l-2.1173,1.4628V62.2523Zm0-1.6939,2.1943,1.5014H390.779V60.5584Zm0-2.5022h2.1558L390.779,59.519V58.0562Zm0-1.7324,2.1943,1.4629H390.779V56.3238Zm0-2.5407h2.1558L390.779,55.246Zm-1.1933,1.4244-2.1173-1.4244h2.1173Zm0,.8469L387.1989,57.71V53.86l2.3868,1.6553v.539Zm0,1.7323h-2.1173l2.1558-1.4629v1.4629Zm0,1.6553-2.0788-1.4243h2.1173V59.442Zm0,.847-2.3868,1.6553v-3.815l2.3868,1.6323v.5274Zm0,1.7323H387.43l2.1558-1.4629Zm0,1.6553-2.0788-1.4243h2.1173v1.4243Zm0,.8469-2.3868,1.6554v-3.815l2.3868,1.6169v.5427Zm0,1.7709H387.43l2.1558-1.4629Zm0,1.1549h-.7315l-1.3473-.9239h2.0788Zm0,.4619-.2695-.1925h.308v.231Zm0,.8854-1.0009.693V67.7534h.3079l.7315.4889V68.82Zm0,.693h-.616l.616-.4235Zm-1.2319-2.04h-1.1549v-.8855l1.27.8855h-.1155Zm-1.1164,2.04h1.1164V67.7534h-1.1164V69.49Zm-1.3474,0h1.1164V67.7534H385.89V69.49Zm-1.3474,0h1.0779V67.7534h-1.0779V69.49Zm-1.3858,0h1.1164V67.7534h-1.1549v1.7593Zm-.2695,0h-.154l-.0385-1.7324h.231v1.7709Zm-1.6938-34.9931h.3849v-1.39h-.3849v1.39Zm-.7315,0h.385v-1.39h-.385v1.39Zm-.6929,0h.385v-1.39h-.5812V34.3Zm-.7314,0h.3849v-1.39h-.3849v1.39Zm-.7315,0h.385v-1.39h-.385v1.39Zm-.7314,0h.385v-1.39h-.385v1.39Zm-.7314,0h.3849v-1.39h-.3849v1.39Zm-.7315,0h.385v-1.39h-.385v1.39ZM374.957,68.1807v0Zm-1.3858,1.3474h1.0779V67.7534h-1.1549v1.7477Zm-1.3474,0H373.34V67.7534h-1.1164v1.7747Zm-1.3474,0h1.0779V67.7534h-1.1549v1.7477Zm-3.58,16.2454-2.6177,12.7037V57.6712a4.922,4.922,0,0,0-2.0019-3.9651V52.74h-.2694V50.3531h-2.0825a2.67,2.67,0,0,1,2.5793-1.9248h1.6284A2.6832,2.6832,0,0,1,367.2272,51.1V85.72ZM361.6337,52.74h.539V50.43h-.539v2.31Zm-.6275,0h.539V50.43h-.539v2.31Zm-.1,0h-.5813a.0761.0761,0,0,0-.0385,0V50.43h.539v2.2713Zm-.6159-.0193-.154-.0308V51.073a3.5041,3.5041,0,0,1,.077-.6545h.077v2.3021Zm-2.4253-1.6168V50.43h.0385a3.54,3.54,0,0,0-.0385.639Zm-.1155,1.5591-.5389.077V50.43h.5389v2.2328Zm-.6159.077h-.6583V50.43h.5389v2.2713Zm-1.1549,0h.539V50.43h-.539v2.31Zm-.6159,0h.5389V50.43H355.32v2.2713Zm-3.9266,6.9293h1.5783v-.9085h-1.5783Zm0,1.0394h1.5783V59.6692h-1.5783v1.0394Zm0,1.0009h1.5783v-.9047h-1.5783V61.71Zm0,1.024h1.5783V61.81h-1.5783v.9239Zm0,1.0163h1.5783V62.7489h-1.5783V63.75Zm0,1.0163h1.5783v-.9239h-1.5783v.9239Zm0,1.0009h1.5783v-.9047h-1.5783v.9047Zm0,1.0394h1.5783v-.9778h-1.5783v.9778Zm0,1.0124h1.5783v-.8969h-1.5783v.8969Zm0,1.0394h1.5783V67.7534h-1.5783v1.1048Zm0,1.02h1.5783v-.97h-1.5783v.97Zm0,1.0163h1.5783v-.9008h-1.5783v.9008Zm0,1.0394h1.5783v-1.101h-1.5783v1.101Zm0,1.0124h1.5783V71.988h-1.5783v.9585Zm0,1.0394h1.5783V73.062h-1.5783v.9239Zm0,1.0009h1.5783v-.8854h-1.5783v.8854Zm0,1.0394h1.5783v-.9585h-1.5783v.9585Zm0,1.0009h1.5783v-.8854h-1.5783Zm0,1.0394h1.5783v-1.074h-1.5783v1.074Zm0,1.0009h1.5783v-.92h-1.5783v.92Zm0,1.0009h1.5783v-.9239h-1.5783Zm0,1.0009h1.5783v-.997h-1.5783v.997Zm0,1.0009h1.5783v-.9239h-1.5783V82.07Zm0,1.0009h1.5783v-.9239h-1.5783v.9239Zm.8084,9.5856h.6544V91.4632h-.6583v1.1934Zm-.8084,0h.6544V91.4632h-.6544Zm-.8084,0h.6544V91.4632h-.6544Zm-.8085,0h.6545V91.4632h-.6545Zm-.8084,0h.6545V91.4632h-.6545Zm-.77,0h.6545V91.4632h-.6545Zm-.8084,0h.6544V91.4632h-.6544Zm-.8084,0h.6544V91.4632h-.6544Zm-.8084,0h.6544V91.4632h-.77v1.1934Zm-.8084,0h.6544V91.4632h-.7354v1.1934Zm-.8084,0h.6544V91.4632h-.6544Zm-.8085,0h.6545V91.4632h-.6584v1.1934Zm-.8084,0h.6545V91.4632h-.6545Zm-5.9709,25.5269q-.0962-.0042-.1924,0h-4.2346v-1.9249a2.2711,2.2711,0,0,1,2.26-2.2712h.0693a1.0086,1.0086,0,0,0,1.0086.9893H337.3l-.7314,3.1567Zm-.3965,1.7592h-4.0305v-.7776H336.38l-.1733.7892Zm-6.66,0h.7429v-.7776h-.7468v.7892Zm-.435-22.0968h.3849v-.77H329.12Zm0,.8854h.3849v-.7622H329.12v.7622Zm0,.8854h.3849v-.77H329.12Zm0,.8739h.3849v-.77H329.12Zm0,.8777h.3849v-.77H329.12Zm0,.8777h.3849v-.77H329.12Zm0,.8777h.3849v-.77H329.12Zm0,.8778h.3849v-.77H329.12Zm0,.8854h.3849v-.77H329.12Zm0,.8854h.3849v-.77H329.12Zm0,.8854h.3849v-.77H329.12Zm0,.87h.3849v-.77H329.12Zm0,.8777h.3849v-.77H329.12Zm0,.8777h.3849v-.77H329.12Zm0,.8855h.3849v-.8393H329.12v.8393Zm0,.8854h.3849v-.77H329.12Zm0,.8738h.3849v-.77H329.12Zm0,.8854h.3849v-.77H329.12Zm0,.87h.3849v-.77H329.12Zm0,.8854h.3849v-.77H329.12Zm0,.8854h.3849v-.77H329.12Zm0,.8854h.3849v-.77H329.12Zm0,.8854h.3849v-.77H329.12Zm0,.8854h.3849v-.77H329.12Zm0,.1925h.3849v-.077H329.12Zm0,1.7708h.3849v-.77H329.12v.77Zm-.0385-22.0968h-.45v-.77h.4388v.77Zm-.45.8854h.4388v-.7314h-.4619v.77Zm0,.8854h.4388v-.77h-.4619v.77Zm0,.8854h.4388v-.77h-.4619v.77Zm0,.8855h.4388v-.77h-.4619v.77Zm0,.8854h.4388v-.77h-.4619v.77Zm0,.8854h.4388v-.77h-.4619v.77Zm0,.8854h.4388v-.77h-.4619v.77Zm.4388.8854h-.4619v-.77h.4234v.77Zm-.4619.8854h.4234v-.77h-.4234Zm0,.8854h.4234v-.77h-.4234Zm0,.8855h.4234v-.77h-.4234Zm0,.8854h.4234v-.77h-.4234Zm0,.8854h.4234v-.77h-.4234Zm0,.8854h.4234v-.77h-.4234Zm0,.8854h.4234v-.77h-.4234Zm0,.8854h.4234v-.77h-.4234Zm.4234.8854h-.4234v-.77h.4619v.77Zm-.4234.8855h.4619v-.77h-.4234v.77Zm0,.8854h.4619v-.77h-.4234v.77Zm0,.8854h.4619v-.77h-.4234v.77Zm0,.8854h.4619v-.77h-.4234v.77Zm0,.8854h.4619v-.77h-.4234v.77Zm0,.8854h.4619v-.77h-.4234v.77Zm0,.1925h.4619v-.077h-.4234v.077Zm.4619,1.7708H306.7034v-.9663H310.63v.693h1.9633v-.693h4.504a.4188.4188,0,0,0,.4235.3465h.9624a.451.451,0,0,0,.4234-.3465h3.0412v.693h6.81v-.693h.462v.77Zm-18.44-.8469h.462l-.4235.5005v-.62Zm0-1.3858.385.4234h-.3465v-.4234Zm.077-.154.539-.616v.616Zm.539,1.5783v.5775h-.539l.5-.5775Zm-.077-.9624-.4235-.4619h.539v.3849h-.1155Zm-.5043-2.66.6159.6544v.539l-.5774.6929v-1.9248Zm.6159-.077v.5774l-.5-.6044h.539Zm-.5-.1155.539-.6159v.5774h-.539Zm-.0769-2.0018.6159.6929v.539l-.6544.5774v-1.9248Zm.6159-.077v.5775l-.5-.589h.539Zm.6159,5.7359h.0385l.5.5775h-.5v-.5775Zm0-1.4628h.539l-.385.4235h-.077v-.5005Zm0-.7314.539.5928h-.5v-.7083Zm.6159,2.1558v.5l-.4619-.5158h.4619Zm-.3849-.974.3849-.4427v.385h-.3849Zm-.1925-1.8863.6159-.6929v1.9363L312,116.99v-.5659Zm0-.7314h.539l-.5236.5774v-.5774Zm0-.7238.539.5775h-.52v-.5775Zm0-.6929.6159-.6929v1.9248L312,114.83v-.5774Zm0-.7314h.539l-.52.5774v-.5736ZM322.021,97.1222h.5775v-.9239h-.55v.9239Zm.1155,7.2758V97.7l2.1173,2.3868v1.8863L322.16,104.36Zm.231.1924,1.8863-2.1172V104.59h-1.8863Zm.0384.385h1.8479v2.0788l-1.8094-2.1173Zm-.2694,6.8523v-6.733l2.1173,2.3868v1.8863l-2.1173,2.3945Zm.2309.231,1.8864-2.1558V112.02h-1.8864Zm.077.385h1.8094v2.0788Zm-.2309,6.8138-.0385.0385v-.0385Zm.8469-1.0009h-.9047v-5.6589l2.1173,2.3867v1.8863l-1.1933,1.3859Zm1.1934.9624v.27h-1.8864l.25-.308h1.6553Zm-.77-1.0009.77-.8854v.8854Zm.77-20.8265v2.1173l-1.8479-2.1173Zm-1.54-.4234h.5544v-.9239h-.67v.9239Zm.6545,0h.5658v-.9239h-.5658v.9239Zm.6775,0h.2194v-.9239h-.204v.9239Zm2.3483,22.1738h1.5938l.25.27h-1.8324v-.308Zm0-1.8093.7314.8084h-.7314v-.8084Zm2.1172,1.8093v.077l-.077-.1155h.077ZM326.41,114.83l2.1173-2.3867v5.74h-.9624l-1.1549-1.3166V114.83Zm0-2.5022H328.18L326.41,114.33v-2.0018Zm0-2.5023,1.8286,2.0788H326.39v-2.0788Zm0-2.5022,2.1173-2.3868v6.7754l-2.1173-2.3868v-2.0018Zm0-2.5023h1.7863l-1.79,2.04v-2.04Zm0-2.4637,1.8094,2.04H326.41v-2.04Zm0-2.5023,2.1173-2.3868v6.8562L326.41,101.938V99.8554Zm0-2.5407h1.8094l-1.8094,2.04v-2.04Zm0-.385h.2118v-.9239h-.231V96.93Zm.3234,0h.539v-.9239h-.5775V96.93Zm.666,0h.5774v-.9239h-.5543V96.93Zm.6929,0h.5544v-.9239h-.6582V96.93Zm-22.62,21.1729h-3.4261v-1.074h2.8872a.92.92,0,0,1,.5389.1925v.8815Zm-3.4261,1.7324h3.4261v-.77h-3.4261v.77Zm-1.8094,1.54h-3.8881v-5.274h3.8881Zm-3.8881,1.8863h2.9642v-.4581h-2.9642v.4581ZM285.4149,119.95h2.9642v3.3107h-3.08V119.95Zm-.9239-6.6213h5.2354v5.2393h-.4234v-2.9257h-.1925v-.5389h-.077v.5389h-.154v-.5389h-.077v.5389h-.154v-.5389H288.61v.5389h-.1924v2.9257h-3.93v-5.2355Zm7.0448,9.8935h1.6168v-.42h-1.7361v.5005Zm0-2.5022.8084-.8085h1.7323v1.4629h-2.66V120.72Zm0-6.5829h3.4261v1.5014H294.77v-.5351h-.0385v.5389h-.154v-.5389h-.0385v.5389h-.1925v-.5389h-.0385v.5389h-.1925v1.5014h-.2309v.4234h-2.31v-3.4261Zm-7.9725,4.4309h-3.1567l.6159-.6159,2.5408-2.5408v3.1567Zm-.9239,4.6581h-.77v-.4235h-.539v-.5389h-.539v-.539h-.5389v-.55h-.5774v-.5389h-.5775V120.07h3.4147v3.2991Zm-3.4262,0V121.34l1.9633,1.9248h-2.0788ZM269.0887,75.2217a.7706.7706,0,0,0,.385-.231l-.1925-.1925a.8464.8464,0,0,1-.3465.2117h-.0385a.8355.8355,0,0,1-.3464,0l-.077-.0154a.8074.8074,0,0,1-.3465-.231l-.1925.231a1.696,1.696,0,0,0,.462.2695l-1.6169,12.8577H254.6526L253.19,89.4306v-.3849l1.4628-1.27.0154.0385v-.0385h-1.4859V87.39L268.08,74.2246v.0385a.6468.6468,0,0,0,1.27,0,.2993.2993,0,0,0-.0154-.1155l20.48,14.0511H275.61l-3.5417,3.6957h-.2695v-.3465h-.077L269.1041,75.341Zm2.1173,16.2069v.3849a.1162.1162,0,0,0-.077.0385l-1.7323-2.3213v-.6044l1.27-1.7054.6929,4.2346h-.1Zm0,6.1209a.1155.1155,0,0,0-.1155.077l-1.6938-2.0018v-.462l1.7323-2.0018a.1569.1569,0,0,0,.1.05h.0385v4.35Zm0,5.7244a.1154.1154,0,0,0-.077.077l-1.7323-2.0019V100.86l1.7208-2.0019c.0384.0385.077.077.1154.077h.0385v4.3386Zm0,5.6589c-.0385,0-.077.0385-.1155.077l-1.6938-1.9633v-.5l1.7169-2.0018a.1156.1156,0,0,0,.1155.077h.0385v4.3232Zm0,5.7359c-.0385,0-.077.0385-.1155.077l-1.6938-2.0018v-.5l1.7323-2.0018c.0231.0385.0539.0385.1.0385h.0385V114.6Zm0,2.6563h-1.3474l1.1549-1.3474c.0385.0385.077.077.1155.077h.0385v1.27Zm-2.81,0-1.3859-1.6169v-.2309h4.0036v.2309l-1.3858,1.6169h-1.2319Zm-1.54,0v-1.27h.0385c.0616,0,.077-.0385.1155-.077l1.1549,1.3474h-1.3089Zm1.8479-28.3717v.5774l-1.7324,2.3483a.1151.1151,0,0,0-.077-.0385h-.0385V91.494H266.76l.539-4.4271,1.4243,1.9249ZM267.01,92.4179V92.11l1.7708-2.3482c.0116,0,.0231.0385.0385.0385h.5236l1.7708,2.3482v.308H267.033Zm2.3367,2.5023s-.0115-.0385-.0384-.0385h-.6044c-.0193,0-.0385.0385-.0539.0385l-1.7439-2.04v-.27h4.0575v.27l-1.74,2.0287Zm-2.31,3.2337v-.2695l1.7323-2.0018c0,.0269.0385.0385.0385.0385h.5a.0763.0763,0,0,0,.0385-.0193l1.7323,2.04v.27h-4.08Zm2.2713,2.4252h-.6044a.0769.0769,0,0,0-.05.0385l-1.7554-2.04v-.231h4.0806v.231l-1.7324,2.0172h-.0384Zm-2.2713,3.3107V103.62l1.7323-2.021c.0269.0385.0385.0385.0654.0385h.4774c.0385,0,.0385,0,.0385-.0154l1.7708,2.04v.2694h-4.0421Zm2.2713,2.4022h-.6044a.077.077,0,0,0-.0578.0385l-1.7323-2.0018v-.231h4.069v.231l-1.7323,2.04h-.0462Zm-2.2713,3.2336v-.1924l1.7477-2.0018a.0772.0772,0,0,0,.0385.0385h.5389l1.7324,2.0018v.1924h-4.0421Zm2.3328,2.5023a.0645.0645,0,0,0-.0384,0h-.6275a.0768.0768,0,0,0-.05,0l-1.7554-2.04v-.3465h4.0806v.308l-1.7708,2.04Zm-2.31,3.0027,1.7323-2.0018.0385.0385h.4927a.0761.0761,0,0,0,.0385,0l1.7709,2.0018v.2695h-4.0422v-.231Zm-.1348-4.6965c.05,0,.077-.0385.1-.077l1.7324,2.0018v.4619l-1.7131,2.0018c-.0385-.0385-.077-.077-.1155-.077h-.0385v-4.35Zm0-5.659a.1154.1154,0,0,0,.1155-.077l1.7208,2.0018v.462l-1.7323,2.0018a.1079.1079,0,0,0-.1155-.077h-.0385V104.71h.0385Zm-.0269-7.0833V93.1609h.0385a.1982.1982,0,0,0,.1155-.0539l1.7323,2.01v.462L267.0523,97.58a.1159.1159,0,0,0-.077-.0655h-.0385Zm.0385,1.3859a.1156.1156,0,0,0,.1155-.077l1.7323,2.0018v.462l-1.7323,2.0018a.1153.1153,0,0,0-.1155-.0385h-.0385V98.9353h.0385Zm3.6956-12.2033.0385.231-1.3089,1.7708h-.6582l-1.4629-1.9633v-.0385h3.3915Zm-1.7708-3.1567h.2695l1.4628,2.6562.0385.27h-3.1567l.0385-.0385,1.4244-2.8872Zm-.1925-.8854v.8084a.0828.0828,0,0,0,.077.077L267.5142,86.12l.42-4.5079.6006,1.1549Zm1.1934-1.1164.6544,4.2346-1.2319-2.2713a.0768.0768,0,0,0,.0385-.077v-.8469Zm-1.7324-.539.7315-5.7359.9239,5.7359H268.13Zm1.6939.1925v.1155l-.5775,1.1934h-.5427l-.67-1.2319v-.077h1.79Zm-3.3492,10.2015h-.1155v.385h-.7352l-3.1952-3.3107h4.35l-.37,2.9642Zm-.1155,6.1209h-.0385a.1232.1232,0,0,0-.1154.1155v1.1549a.102.102,0,0,0,.1154.1155h.0385v4.35h-.0385a.1155.1155,0,0,0-.1154.1155V104.56a.102.102,0,0,0,.1154.1155h.0385V108.91h-.0385a.1232.1232,0,0,0-.1154.1155v1.1164a.102.102,0,0,0,.1154.1155h.0385v4.35h-.0385a.123.123,0,0,0-.1154.1155v1.1163a.1228.1228,0,0,0,.1154.1155h.0385v1.27h-3.43V98.1654h-9.778v-2.31h1.5013V95.24h-1.4744V94.97h1.4244v-.6159H253.14v-.2695h1.4629v-.5389H253.132v-.27h1.4629v-.6159h-1.4783v-.308H266.009v.6544a.1383.1383,0,0,0,.1155.1155h.0385v4.35Zm-4.62-9.0466h.2309l3.1952,3.3107h-6.6213l3.1952-3.3107Zm-3.4647,3.3107H258.16l-3.1951-3.3107h6.5443l-3.1952,3.3492Zm-5.2355-.27h1.5014v-2.66l-1.4628,1.332v-.4l1.5013-1.355h.154l3.1952,3.326H253.04v-.2425Zm15.514-17.6313a.3465.3465,0,0,1,0,.693.3311.3311,0,0,1,0-.6545Zm35.4936,14.2436H290.0345l-20.403-13.9741Zm-3.0413,3.6957h-.1154L297.58,88.4682h6.7368l-3.3106,3.4454Zm7.3143,0h-7.0063l3.3107-3.3877,3.7726,3.4069Zm-14.2821,0,3.3107-3.4262,3.3107,3.4647h-6.6214Zm-.3849,0L290.3425,88.43h6.7753l-3.3491,3.4647Zm-6.8524,0,3.3107-3.4262,3.3107,3.4262h-6.6214Zm-.3849,0-3.3107-3.4262h6.7715l-3.3107,3.4531h-.1155Zm-6.8523,0,3.3106-3.4262,3.3107,3.4262h-6.6213Zm-.385,0-3.3107-3.4262h6.6945l-3.3107,3.4531h-.154Zm-6.8908,0,3.3106-3.4262,3.3492,3.4647h-6.7792Zm-.3465,5.8514a.1155.1155,0,0,0-.1155-.1155h-.0385V93.28h.0385a.1155.1155,0,0,0,.1155-.1154v4.581ZM198.4866,107.02h3.4262v-3.4261h-3.4262Zm0,5.7745h3.4262v-3.4262h-3.4262Zm0,4.4732h3.4262v-1.7438h-3.4262v1.7438Zm-7.0448-9.27h5.2355v-5.2355h-5.2355v5.2355Zm.9008,4.7889h3.4185V109.36h-3.4185ZM192.4,117.26H195.75v-1.7438h-3.3876v1.74Zm-1.8864-9.2621h-3.1567l.616-.616,2.5407-2.5407Zm-.9239,4.785h-.1924V112.64H188.82v-.5389h-.5736v-.5467h-.57v-.5389h-.539v-.539h-.57v-.5389h-.5V109.36h3.4262v3.4262Zm-3.4261,0v-2.021l2.0788,2.021ZM121.3363,75.6336a.0846.0846,0,0,0-.077.0269L119.95,73.9436V73.52l1.0394-1.3858.385,3.249h.308l-.2695-2.1827h3.1952L122.26,75.6413h-.997Zm0,4.2038h-.0385c-.0385,0-.077,0-.077.0385l-1.27-1.4629v-.3465l1.27-1.5013a.1344.1344,0,0,0,.077.0385v3.1952Zm0,4.1575h-.0385c-.0385,0-.077,0-.077.0385l-1.27-1.5013v-.3465l1.27-1.4628c0,.0385.0385.0385.077.0385V83.918Zm0,4.1191h-.0385a.0771.0771,0,0,0-.077.0385L119.95,86.69v-.3465l1.27-1.4628a.0828.0828,0,0,0,.077.077V88.114Zm0,4.1576h-.0385c-.0385,0-.077,0-.077.0385l-1.27-1.4628v-.3465l1.27-1.4628a.1344.1344,0,0,0,.077.0385v3.1566Zm0,4.1576h-.0385a.0771.0771,0,0,0-.077.0385l-1.27-1.4628v-.3465l1.27-1.4628a.1344.1344,0,0,0,.077.0385v3.1566Zm0,1.7324h-.77l.6544-.8085c0,.0385.0385.0385.077.0385h.0385v.77Zm-2.2713,0-.8469-1.0009v-.154h3.0027v.1925l-.8469.9624H119.065Zm-.9624,0V97.43c.0385,0,.0385-.0385.077-.077l.6545.77h-.77Zm0-4.9276c.0385,0,.0385-.0385.077-.0769l1.2319,1.4628v.3465l-1.27,1.4628c-.0385-.0385-.0385-.077-.077-.077h-.0385V93.1609Zm0-4.196L118.1411,89l1.27,1.4628v.3465L118.18,92.2716c-.0385-.0385-.0385-.077-.077-.077V89.038Zm0-4.1576c.0385,0,.0385-.0385.077-.077l1.2319,1.4628v.3465l-1.27,1.4629c-.0385-.0385-.0385-.077-.077-.077h-.0385V84.8419Zm0-4.1961c.0385,0,.0385-.0385.077-.077l1.2319,1.4628v.3465l-1.27,1.4629c-.0385,0-.0385-.0385-.077-.0385h-.0385V80.6843Zm0-4.1961.0385-.0385,1.27,1.4628v.3465l-1.27,1.4629a.0768.0768,0,0,0-.0385-.0385h-.0385v-3.08Zm.1155,3.6186v-.154l1.27-1.5013h.3849a.0377.0377,0,0,0,.0385-.0385l1.27,1.4629v.1924h-2.9988Zm1.6553,1.7709h-.3849l-1.27-1.4629v-.1925h3.0027v.154l-1.27,1.4629a.0578.0578,0,0,0-.0385,0Zm-1.6553,2.4252V84.11l1.27-1.5013h.3849a.0377.0377,0,0,0,.0385-.0385l1.27,1.4629v.1924h-2.9988Zm1.6553,1.7324h-.3849l-1.27-1.5014V84.38h2.9642v.154l-1.3088,1.5014a.0614.0614,0,0,0-.0385-.0385Zm-1.6553,2.3867v-.154l1.27-1.5013h.3849l.0385-.0385,1.27,1.4628v.154h-2.9988Zm1.6553,1.8093h-.3464a.0578.0578,0,0,0-.0385,0l-1.27-1.5013v-.1925h2.9642V88.73l-1.27,1.5013a.0578.0578,0,0,0-.0384-.0385Zm-1.6553,2.3868v-.1925l1.27-1.5013h.4234l1.27,1.4628v.154h-2.9988Zm2.9642,4.0036v.154h-2.9988v-.154l1.27-1.5013h.385c.0231,0,.0385-.0385.0385-.0385l1.27,1.5013Zm-1.3088-2.2328H119.45l-1.27-1.5013v-.1925h2.9642v.154l-1.27,1.4628a.058.058,0,0,0-.0385-.0385ZM118.18,76.0262h2.9642v.1925l-1.27,1.4629a.0377.0377,0,0,0-.0385-.0385h-.385l-1.2665-1.4205V76.03Zm0-.3849,1.27-1.7324h.385l1.3088,1.8094v.2309h-2.96v-.2309Zm.3465-3.7727v-.1539h2.3868v.0384l-1.0779,1.4244h-.3465l-1.0009-1.3089Zm.077-.5,1.0394-1.9633h.1925l1.0394,2.1173v.077h-2.31v-.1925Zm.5389-3.3877.385.77v.5775c0,.0385,0,.0385.0385.0385l-.9239,1.6553.5-3.1182Zm.0385-.27h1.27V67.75l-.5005.8854h-.3464l-.4235-.8854V67.711Zm.693-4.35.5,4.2345H119.219Zm.9624,7.8532-.8855-1.8093a.1344.1344,0,0,0,.0385-.077v-.42l.4235-.8238.385,3.2837Zm4.0806,1.7708,2.3482,2.4253H122.418l2.3483-2.4253h.15Zm4.966,0L127.5342,75.41h-.077l-2.3483-2.4253Zm.3079,0,2.6948,2.4253h-5.0777l2.3483-2.4253h.0346ZM117.606,79.6872h-.0231a.0867.0867,0,0,0-.0924.077V76.3765a.0867.0867,0,0,0,.077.0924h.0308v3.1952Zm-.4119-.72h-2.86c.1848-1.3088.693-2.56,1.27-2.56h1.7593v2.5408Zm-4.812-3.5031,2.4252-2.5254,2.4253,2.5138H112.409Zm-.2695,0-2.4638-2.5292h5.0045l-2.4252,2.5292h-.1155Zm-5.043,0,2.4252-2.5177,2.4253,2.5023H107.07Zm-.308,0-2.4252-2.5292h4.9929l-2.4252,2.5292h-.1425Zm-5.0276,0,2.4253-2.5177,2.41,2.5023h-4.8505Zm-.2926,0L99.0162,72.935h4.966l-2.4253,2.5292Zm-5.043,0,2.4253-2.5177,2.4252,2.5023h-4.812Zm-.2694,0L93.7037,72.935H98.67l-2.4253,2.5292Zm-5.351,0,2.7332-2.5023,2.4253,2.5023H90.778Zm28.3332-12.9348-14.975,10.24h-10.24Zm.77-.2155a.2425.2425,0,1,1,.061.4812.249.249,0,0,1-.061,0,.2426.2426,0,0,1,0-.47Zm152.2873,30.693h2.3868c.7969,0,1.4937,1.6939,1.7323,3.48h-4.1191v-3.48Zm251.28,10.9907V103.17h-31.744V91.66h-1.486v-.308h1.4783v-.8469H479.6863V67.3684H464.2647V84.0758h-3.0566V45.5026h-2.61v-1.64h.8855V38.2653h-3.0028v5.5819h.9047v1.64h-2.6178V84.1143h-.6313V65.8016h-3.6187V84.11h-3.6571V54.0487c0-2.6716-1.6554-4.2346-3.7341-4.2346h-1.2319a3.7022,3.7022,0,0,0-3.6956,3.5032h-2.0018v2.329h-.1925v.8854a3.028,3.028,0,0,0-.4234.47l.6544,31.8248h-1.1934l-.539-25.3151v-.1155l-.0384-.8854h.0384v-.1155h-.0384l-.0385-.8854h.0385v-.1078h-.0385l-.77-40.2286h-.0384V19.2481h-9.2391v1.9248H424.34l-1.1934,49.9913H398.0511l-.3849-1.8594V67.276h-4.62V53.41h-2.6177V52.1008h.4234v-3.58h-2.0788v3.58h.4235V53.41h-2.6062V67.276h-4.3116L381.5863,34.3h-.0385V33.1068h.0231v-.0924h-6.1594v1.2819h-.0385l-.77,32.9528h-4.2693v2.04l-1.0586,5.12V50.9267a4.9616,4.9616,0,0,0-4.9468-4.966h-1.6438a4.9468,4.9468,0,0,0-4.8813,4.196h-2.6755v2.3868h-.25v.8854a4.939,4.939,0,0,0-2.0018,3.9651v1.0009h-1.5784v-.5774h-.2309V85.65h.2309V82.994h1.5784v8.0843H342.297v1.3858L338.19,110.8692a1.06,1.06,0,0,0-.2965-.0462h-.1655v-2.0172c0-.5544-.2117-1.0009-.47-1.0009h-.2118v-1.17a3.3642,3.3642,0,0,0-.05-.616h.5774q.262.0028.5236-.0154a.3541.3541,0,1,0,0-.2694,4.0951,4.0951,0,0,0-.5236-.027H335.31a.35.35,0,1,0-.0039.2695h1.1164a2.9211,2.9211,0,0,0-.0385.6159v1.2319h-.1925c-.2309,0-.4619.462-.4619,1.0009v2.04h-.154a1.0087,1.0087,0,0,0-1.0009,1.0009v.1925h-.077a4.1576,4.1576,0,0,0-4.1191,4.1576v1.8478h-.7314V96.8527h-.924v-.9971h-2.31V92.468h.3079l.462-3.1567h-3.6187l.462,3.1567h.308v3.3992h-2.5061v22.3163h-3.022a.3969.3969,0,0,0-.3926-.3311h-.0655v-.8238c0-.2233-.077-.4042-.1925-.4042h-.077v-.4851a.9228.9228,0,0,0-.0231-.27h.45a.1739.1739,0,0,0,.1348.077.154.154,0,0,0,.1463-.154.1424.1424,0,0,0-.2695-.0769.3878.3878,0,0,0-.2156-.0385h-.9008a.1425.1425,0,0,0-.2695.0385.1491.1491,0,0,0,.1386.1539.1527.1527,0,0,0,.1232-.077h.45a1.3786,1.3786,0,0,0-.0231.231v.462h-.077c-.1155,0-.1925.1925-.1925.3849v.8085h-.077a.3892.3892,0,0,0-.4234.3079h-4.5041v-4.8082h-.6929v-1.1548h.077l.1154-.9086h-.997l.1271.9086h.0885v1.2588h-.6621v4.8813h-3.9266V115.2h-.45v.4889h-5.2625v-.4927h-.9008v.5389h-3.8881v-3.3415h-.45v.4928H290.45v-.4928h-.9239v.539h-5.4241v-.539h-.077v.539h-.154v-.539h-.0693v.539h-.1694v-.539h-.077v.539h-.1848v1.4936h-.2233v.539h-.5389v.5389h-.539v.539h-.55v.5466h-.4965v.539h-.539v.5389h-.539v.539h-.5389v.4619H278.62v-5.7359h-.1925v-.539h-.0616v.539h-.1694v-.539h-.0616v.539h-.1693v-.539h-.0616v.539h-.1925v10.4017h-.8777v-6.0824H271.668v-1.27h.0385a.1154.1154,0,0,0,.1154-.1155v-1.1395a.1154.1154,0,0,0-.1154-.1155h-.0385v-4.3385h.0385a.1154.1154,0,0,0,.1154-.1155v-1.1395a.1155.1155,0,0,0-.1154-.154h-.0385V104.59h.0385a.1154.1154,0,0,0,.1154-.1155V103.32a.1153.1153,0,0,0-.1154-.1539h-.0385V98.8545h.0385a.1154.1154,0,0,0,.1154-.1155V100.51h3.7573c2.2636,0,1.22-8.0072-.947-8.0072h-2.81V92.31h36.841v-.6159l-4.1-3.6957L268.8462,73.524h-.0077a.6427.6427,0,0,0-.6545.0385l-.0846.0769-.0154.0385-15.0906,13.32V69.4049H246.988V65.94H233.0139v3.4647h-6.0054v40.19H215.0747V88.73h-2.0018V86.42h-3.2684v2.2713h-5.274v28.4872h-1.27V93.311h-.077V90.5393h-.0616V93.311h-.1656V91.8482h-.0384v1.4243h-.077v8.8157h-5.274v-5.967h-.1925V87.2286h-.0385v8.8926h-.154V87.6521h-.077V96.16h-.154V90.3083h-.0385V96.16H196.72v6.044h-5.4279V98.0461h-.077v4.1576h-.154v-5.12h-.077v5.12h-.154V98.7775h-.0385v3.4262h-.1925v1.4628h-.2309v.539h-.5813v.5389h-.539v.5389h-.5389v.539h-.539v.5389h-.5389v.539h-.539v.5389h-.5389v.462h-.7892v-5.736h-.1925V100.09h-.0654v2.0788h-.1694v-1.2319h-.0654v1.2319h-.154V100.86h-.0385v1.3242h-.1925v10.9945h-3.3877V51.585l-8.8926-8.0842V29.0647h-1.0394V43.5162l-8.8541,8.1227v52.57h-7.0064V82.8824H145.1308v8.18h-6.0439V88.4605l-4.4194-2.5022-4.504,2.5022V91.04h-1.8863v7.1988h-6.39v-.7315a.1032.1032,0,0,0,.0885-.1155v-.8469c0-.077-.0385-.1155-.0924-.1155V93.234h.0385a.1021.1021,0,0,0,.1155-.1154v-.77a.0828.0828,0,0,0-.077-.077V89.0764h.0385a.1021.1021,0,0,0,.1155-.1154v-.8046a.0828.0828,0,0,0-.077-.077V84.9612c.077,0,.1155-.0385.1155-.0885V84.045c0-.0385-.0385-.077-.1155-.077V80.8421h.0385a.0843.0843,0,0,0,.077-.0847v-.8315a.0853.0853,0,0,0-.077-.0885h-.0385V76.6422h.0385a.1021.1021,0,0,0,.1155-.1155v-.5005H133.582v-.4619L130.5408,72.87h-8.8927l-1.1549-9.4315a.77.77,0,0,0,.3234-.231l-.154-.154a.6006.6006,0,0,1-.5774.154h-.027a.6239.6239,0,0,1-.2579-.154l-.154.154a1.63,1.63,0,0,0,.27.1925L117.991,75.2563h.3l.5005-3.1182.9239,1.27V73.87l-1.27,1.6939a.0884.0884,0,0,0-.077-.0385h-.6159L115.173,72.831H104.71l15.0135-10.2785a.2.2,0,0,0-.0192.077.4812.4812,0,0,0,.9624,0h0V62.591l11.2409,9.9321h-1.4051v.0385h.0231l3.03,2.6947V72.5616h-1.5129L120.4316,62.3639l-.0577-.05h-.0385a.4615.4615,0,0,0-.27-.077.5567.5567,0,0,0-.231.05L93.6575,72.9119l-3.0027,2.6947v.4389h26.9858v.1386h-2.0787c-1.5784,0-2.3483,5.8514-.693,5.8514h2.7718V80.7266a.0854.0854,0,0,0,.077.0886v3.1836c-.077,0-.1155.0385-.1155.0885v.8316a.0828.0828,0,0,0,.077.077h.0385v3.1566h-.0385a.0828.0828,0,0,0-.077.077v.8085a.0828.0828,0,0,0,.077.077v3.1566h-.0385a.0828.0828,0,0,0-.077.077v.8085a.0827.0827,0,0,0,.077.0769h.0385v3.1567h-.0385c-.077,0-.1155.0385-.1155.077v.8469a.0828.0828,0,0,0,.077.077v.7315h-4.7735v3.85h-2.2713V84.2644H96.3908V78.413c-.077.077-.1155.154-.1925.1925v5.7013H94.7354V78.6555a2.23,2.23,0,0,1-.1925-.2194v5.8707H84.6917V117.26H82.074V63.5573H67.9074V82.8824H52.8168V54.7109H26.37v50.788H24.0448v-5.2932H8.4538v15.8374H0v81.6736H523.5181V119.9235H521.99V115.92h1.5283v-1.1318H521.99v-5.5743h1.5283v-3.6571H521.99v-1.1741h-1.4859v-.3h3.0027Z" fill="#1a6e9e" fill-rule="evenodd" opacity="0.48" style="isolation: isolate"/>
    </g>
    <use width="564.5599" height="245.68" transform="matrix(0.385, 0, 0, -0.385, 254.5372, 190.0367)" xlink:href="#aa"/>
  </g>
</svg>
