<?xml version="1.0" encoding="utf-8"?>
<!-- Generator: Adobe Illustrator 24.0.0, SVG Export Plug-In . SVG Version: 6.00 Build 0)  -->
<svg version="1.1" id="Layer_1" xmlns="http://www.w3.org/2000/svg" xmlns:xlink="http://www.w3.org/1999/xlink" x="0px" y="0px"
	 viewBox="0 0 512 512" style="enable-background:new 0 0 512 512;" xml:space="preserve">
<style type="text/css">
	.st0{fill:#FFFFFF;}
</style>
<path class="st0" d="M477.9,447.3L363.3,332.7c25.6-32.2,40.9-72.8,40.9-117c0-103.8-84.4-188.2-188.2-188.2S27.8,111.9,27.8,215.7
	S112.2,403.9,216,403.9c43.9,0,84.4-15.1,116.4-40.4L447,478.2c4.3,4.3,9.8,6.4,15.4,6.4s11.2-2.1,15.4-6.4
	C486.4,469.6,486.4,455.8,477.9,447.3z M216,360.3c-79.7,0-144.6-64.9-144.6-144.6S136.2,71.1,216,71.1S360.6,136,360.6,215.7
	S295.7,360.3,216,360.3z"/>
</svg>
